<?xml version="1.0" encoding="iso-8859-1"?>
<!-- Generator: Adobe Illustrator 17.1.0, SVG Export Plug-In . SVG Version: 6.00 Build 0)  -->
<!DOCTYPE svg PUBLIC "-//W3C//DTD SVG 1.1//EN" "http://www.w3.org/Graphics/SVG/1.1/DTD/svg11.dtd">
<svg fill="#000000" version="1.1" id="Capa_1" xmlns="http://www.w3.org/2000/svg" xmlns:xlink="http://www.w3.org/1999/xlink" x="0px" y="0px"
	 viewBox="0 0 549.415 549.415" style="enable-background:new 0 0 549.415 549.415;" xml:space="preserve">
<path d="M541.915,333.207h-19.36c3.969-5.676,6.306-12.572,6.306-20.008v-1.794c0.797,0.279,1.623,0.539,2.486,0.771
	c4.354,1.167,8.9,0.269,12.473-2.469c3.557-2.726,5.596-6.858,5.596-11.338c0-16.56-8.132-31.248-20.605-40.306
	c-0.515-32.526-7.268-61.996-20.129-87.63c-12.661-25.236-31.222-46.814-55.167-64.136c-44.289-32.036-106.118-48.97-178.806-48.97
	S140.19,74.261,95.902,106.297c-23.946,17.321-42.507,38.899-55.168,64.136c-12.861,25.635-19.614,55.104-20.129,87.63
	C8.132,267.122,0,281.811,0,298.371c0,4.479,2.039,8.61,5.594,11.337c3.574,2.739,8.12,3.641,12.475,2.47
	c1.504-0.404,2.896-0.889,4.204-1.427v2.449c0,7.436,2.337,14.332,6.306,20.008H7.5c-4.143,0-7.5,3.357-7.5,7.5v32.627
	c0,4.143,3.357,7.5,7.5,7.5h13.055v36.007v40.55c0,19.132,15.565,34.697,34.698,34.697h438.909
	c19.133,0,34.698-15.565,34.698-34.697v-40.55v-36.007h13.055c4.143,0,7.5-3.357,7.5-7.5v-32.627
	C549.415,336.564,546.058,333.207,541.915,333.207z M15.012,297.446c0.492-18.762,15.907-33.873,34.785-33.873h389.347
	c4.143,0,7.5-3.357,7.5-7.5s-3.357-7.5-7.5-7.5H49.797c-4.843,0-9.521,0.708-13.95,2.003
	C41.479,138.701,129.86,72.328,274.708,72.328s233.229,66.373,238.86,178.248c-4.43-1.295-9.108-2.003-13.95-2.003
	c-4.143,0-7.5,3.357-7.5,7.5s3.357,7.5,7.5,7.5c18.878,0,34.293,15.11,34.785,33.872c-3.903-1.241-6.79-3.526-10.1-6.145
	c-5.871-4.646-13.178-10.428-26.919-10.428c-13.74,0-21.047,5.782-26.918,10.428c-5.274,4.175-9.086,7.19-17.608,7.19
	c-8.525,0-12.337-3.017-17.613-7.19c-5.871-4.646-13.179-10.428-26.92-10.428c-13.74,0-21.046,5.782-26.917,10.428
	c-5.274,4.175-9.086,7.19-17.608,7.19c-8.523,0-12.335-3.016-17.61-7.19c-5.871-4.646-13.178-10.428-26.919-10.428
	s-21.048,5.782-26.92,10.428c-5.275,4.174-9.087,7.19-17.611,7.19c-8.526,0-12.339-3.017-17.615-7.19
	c-5.872-4.646-13.18-10.428-26.922-10.428s-21.05,5.781-26.922,10.428c-5.276,4.174-9.089,7.19-17.615,7.19
	c-8.525,0-12.338-3.017-17.614-7.19c-5.872-4.646-13.18-10.428-26.922-10.428c-13.743,0-21.051,5.781-26.923,10.427
	c-5.277,4.175-9.09,7.191-17.616,7.191c-8.528,0-12.342-3.017-17.619-7.191c-5.873-4.646-13.182-10.427-26.926-10.427
	s-21.053,5.781-26.925,10.427C21.808,293.919,18.919,296.206,15.012,297.446z M37.272,313.199v-12.342
	c4.021-2.99,7.839-4.984,14.772-4.984c8.528,0,12.342,3.017,17.619,7.191c5.873,4.646,13.182,10.427,26.926,10.427
	c13.743,0,21.051-5.781,26.923-10.427c5.277-4.175,9.09-7.191,17.616-7.191s12.339,3.017,17.615,7.191
	c5.871,4.646,13.179,10.427,26.921,10.427s21.05-5.781,26.922-10.428c5.276-4.174,9.089-7.19,17.615-7.19s12.339,3.017,17.615,7.19
	c5.872,4.646,13.18,10.428,26.922,10.428c13.741,0,21.048-5.782,26.92-10.428c5.275-4.174,9.087-7.19,17.611-7.19
	c8.523,0,12.335,3.016,17.61,7.19c5.871,4.646,13.178,10.428,26.919,10.428c13.74,0,21.046-5.782,26.917-10.428
	c5.274-4.175,9.086-7.19,17.608-7.19c8.525,0,12.337,3.017,17.613,7.19c5.871,4.646,13.179,10.428,26.92,10.428
	c13.74,0,21.046-5.782,26.917-10.428c5.274-4.175,9.086-7.19,17.609-7.19c7.9,0,11.754,2.593,16.476,6.295v11.031
	c0,11.032-8.976,20.008-20.008,20.008H57.281C46.248,333.207,37.272,324.231,37.272,313.199z M267.208,409.34H35.555v-28.507
	h231.653V409.34z M513.86,457.39c0,10.861-8.837,19.697-19.698,19.697H55.253c-10.861,0-19.698-8.836-19.698-19.697v-33.05h239.153
	H513.86V457.39z M513.86,409.34H282.208v-28.507H513.86V409.34z M534.415,365.833H521.36H274.708H28.055H15v-17.627h42.281h436.571
	h40.563V365.833z M143.5,155.55c0,4.143-3.357,7.5-7.5,7.5h-26.242c-4.143,0-7.5-3.357-7.5-7.5s3.357-7.5,7.5-7.5H136
	C140.143,148.05,143.5,151.408,143.5,155.55z M204.231,155.55c0,4.143-3.357,7.5-7.5,7.5h-26.242c-4.143,0-7.5-3.357-7.5-7.5
	s3.357-7.5,7.5-7.5h26.242C200.874,148.05,204.231,151.408,204.231,155.55z M264.963,155.55c0,4.143-3.357,7.5-7.5,7.5h-26.242
	c-4.143,0-7.5-3.357-7.5-7.5s3.357-7.5,7.5-7.5h26.242C261.605,148.05,264.963,151.408,264.963,155.55z M325.694,155.55
	c0,4.143-3.357,7.5-7.5,7.5h-26.242c-4.143,0-7.5-3.357-7.5-7.5s3.357-7.5,7.5-7.5h26.242
	C322.337,148.05,325.694,151.408,325.694,155.55z M386.426,155.55c0,4.143-3.357,7.5-7.5,7.5h-26.241c-4.143,0-7.5-3.357-7.5-7.5
	s3.357-7.5,7.5-7.5h26.241C383.068,148.05,386.426,151.408,386.426,155.55z M231.221,121.941h-26.241c-4.143,0-7.5-3.357-7.5-7.5
	s3.357-7.5,7.5-7.5h26.241c4.143,0,7.5,3.357,7.5,7.5S235.363,121.941,231.221,121.941z M291.952,121.941h-26.241
	c-4.143,0-7.5-3.357-7.5-7.5s3.357-7.5,7.5-7.5h26.241c4.143,0,7.5,3.357,7.5,7.5S296.095,121.941,291.952,121.941z
	 M352.685,121.941h-26.242c-4.143,0-7.5-3.357-7.5-7.5s3.357-7.5,7.5-7.5h26.242c4.143,0,7.5,3.357,7.5,7.5
	S356.827,121.941,352.685,121.941z M447.158,155.55c0,4.143-3.357,7.5-7.5,7.5h-26.242c-4.143,0-7.5-3.357-7.5-7.5
	s3.357-7.5,7.5-7.5h26.242C443.801,148.05,447.158,151.408,447.158,155.55z"/>
<g>
</g>
<g>
</g>
<g>
</g>
<g>
</g>
<g>
</g>
<g>
</g>
<g>
</g>
<g>
</g>
<g>
</g>
<g>
</g>
<g>
</g>
<g>
</g>
<g>
</g>
<g>
</g>
<g>
</g>
</svg>
