<?xml version="1.0" encoding="iso-8859-1"?>
<!-- Generator: Adobe Illustrator 19.0.0, SVG Export Plug-In . SVG Version: 6.00 Build 0)  -->
<svg fill="#000000" version="1.1" id="Layer_1" xmlns="http://www.w3.org/2000/svg" xmlns:xlink="http://www.w3.org/1999/xlink" x="0px" y="0px"
	 viewBox="0 0 502 502" style="enable-background:new 0 0 502 502;" xml:space="preserve">
<g>
	<g>
		<g>
			<path d="M434.521,118.197H10c-5.522,0-10,4.477-10,10v214.905c0,5.523,4.478,10,10,10h39.587
				c4.848,17.673,21.044,30.701,40.235,30.701c19.191,0,35.387-13.028,40.236-30.701h223.466
				c4.848,17.673,21.044,30.701,40.235,30.701c19.191,0,35.387-13.028,40.236-30.701H492c5.522,0,10-4.477,10-10V185.676
				C502,148.468,471.729,118.197,434.521,118.197z M111.079,346.565c-2.104,9.916-11.122,17.238-21.257,17.238
				c-8.911,0-17.123-5.672-20.3-13.998c-3.398-8.904-0.409-19.225,7.141-24.996c6.788-5.189,16.266-5.879,23.727-1.704
				C108.588,327.693,113.035,337.345,111.079,346.565z M415.015,346.565c-2.104,9.916-11.122,17.238-21.257,17.238
				c-8.911,0-17.123-5.672-20.3-13.998c-3.398-8.904-0.409-19.225,7.141-24.996c6.788-5.189,16.266-5.879,23.727-1.704
				C412.524,327.693,416.972,337.345,415.015,346.565z M482,257.373h-11.49c-5.522,0-10,4.477-10,10s4.478,10,10,10H482v16.841
				h-28.888c-5.522,0-10,4.477-10,10s4.478,10,10,10H482v18.888h-47.501c-4.119-18.705-20.817-32.748-40.742-32.748
				c-19.925,0-36.622,14.042-40.741,32.748H130.563c-4.119-18.705-20.817-32.748-40.742-32.748
				c-19.925,0-36.622,14.042-40.741,32.748H20v-18.888h10.467c5.522,0,10-4.477,10-10s-4.478-10-10-10H20v-53.682h462V257.373z
				 M482,220.533h-79.266v-54.471c0-5.523-4.478-10-10-10c-5.522,0-10,4.477-10,10v54.471h-80.288v-54.471c0-5.523-4.478-10-10-10
				c-5.522,0-10,4.477-10,10v54.471H203.18v-54.471c0-5.523-4.478-10-10-10c-5.522,0-10,4.477-10,10v54.471h-81.313v-54.471
				c0-5.523-4.478-10-10-10c-5.522,0-10,4.477-10,10v54.471H20v-82.336h414.521c26.18,0,47.479,21.299,47.479,47.479V220.533z"/>
			<path d="M152.246,314.214h180.11c5.522,0,10-4.477,10-10s-4.477-10-10-10h-180.11c-5.522,0-10,4.477-10,10
				S146.724,314.214,152.246,314.214z"/>
			<path d="M453.346,187.552v15.35c0,5.523,4.477,10,10,10c5.522,0,10-4.477,10-10v-15.35c0-5.523-4.478-10-10-10
				C457.824,177.552,453.346,182.029,453.346,187.552z"/>
		</g>
	</g>
</g>
<g>
</g>
<g>
</g>
<g>
</g>
<g>
</g>
<g>
</g>
<g>
</g>
<g>
</g>
<g>
</g>
<g>
</g>
<g>
</g>
<g>
</g>
<g>
</g>
<g>
</g>
<g>
</g>
<g>
</g>
</svg>
