<?xml version="1.0" encoding="iso-8859-1"?>
<!-- Generator: Adobe Illustrator 18.0.0, SVG Export Plug-In . SVG Version: 6.00 Build 0)  -->
<!DOCTYPE svg PUBLIC "-//W3C//DTD SVG 1.1//EN" "http://www.w3.org/Graphics/SVG/1.1/DTD/svg11.dtd">
<svg fill="#000000" version="1.1" id="Capa_1" xmlns="http://www.w3.org/2000/svg" xmlns:xlink="http://www.w3.org/1999/xlink" x="0px" y="0px"
	 viewBox="0 0 301 301" style="enable-background:new 0 0 301 301;" xml:space="preserve">
<path d="M291,150.082h-8.366c0.403-0.738,0.653-1.572,0.653-2.473c0.001-12.103-6.799-22.611-16.784-27.928
	c-2.015-1.072-4.497-0.704-6.111,0.909l-14.141,14.141c-2.027,2.028-5.315,2.028-7.342,0l-15.087-15.086
	c-2.346-2.346-5.528-3.664-8.846-3.664c-5.095,0-9.226,4.131-9.226,9.226v22.4c0,0.901,0.25,1.736,0.654,2.475h-30.927
	c13.441-12.967,21.827-31.142,21.827-51.248c0-39.286-31.962-71.248-71.248-71.248c-39.286,0-71.248,31.962-71.248,71.248
	c0,13.13,3.585,25.432,9.805,36.006C37.802,117.639,20,87.567,20,53.415c0-5.522-4.477-10-10-10s-10,4.478-10,10
	c0,20.229,5.178,39.269,14.273,55.871v154.129c0,5.522,4.478,10,10,10c5.523,0,10-4.478,10-10v-127.48
	c20.986,20.955,49.893,33.976,81.784,34.14v93.341c0,5.522,4.478,10,10,10c5.522,0,10-4.478,10-10v-93.333h81.609v93.333
	c0,5.522,4.477,10,10,10c5.522,0,10-4.478,10-10v-93.333H291c5.522,0,10-4.477,10-10C301,154.559,296.522,150.082,291,150.082z
	 M126.058,47.585c28.258,0,51.248,22.99,51.248,51.248c0,28.258-22.99,51.248-51.248,51.248S74.81,127.091,74.81,98.833
	C74.81,70.576,97.8,47.585,126.058,47.585z"/>
<g>
</g>
<g>
</g>
<g>
</g>
<g>
</g>
<g>
</g>
<g>
</g>
<g>
</g>
<g>
</g>
<g>
</g>
<g>
</g>
<g>
</g>
<g>
</g>
<g>
</g>
<g>
</g>
<g>
</g>
</svg>
