<?xml version="1.0" encoding="iso-8859-1"?>
<!-- Generator: Adobe Illustrator 19.0.0, SVG Export Plug-In . SVG Version: 6.00 Build 0)  -->
<svg fill="#000000" version="1.1" id="Layer_1" xmlns="http://www.w3.org/2000/svg" xmlns:xlink="http://www.w3.org/1999/xlink" x="0px" y="0px"
	 viewBox="0 0 459.144 459.144" style="enable-background:new 0 0 459.144 459.144;" xml:space="preserve">
<g>
	<g>
		<g>
			<circle cx="106.784" cy="133.536" r="32.243"/>
			<circle cx="232.434" cy="345.296" r="32.243"/>
			<path d="M146.882,290.335v-84.046c2.277-0.797-3.951,3.018,87.498-55.958c6.485-4.183,8.353-12.832,4.17-19.318
				c-4.184-6.487-12.832-8.351-19.318-4.17l-81.079,52.289c-9.981,0-38.924,0-47.507,0L24.772,98.966
				c-4.899-5.963-13.706-6.825-19.669-1.925c-5.963,4.9-6.824,13.706-1.925,19.669l69.684,84.804v92.792l-39.96,131.636
				c-2.69,8.862,2.313,18.227,11.175,20.917c8.875,2.693,18.23-2.324,20.917-11.175l37.226-122.631h19.937l31.951,38.317v58.722
				c0,9.261,7.508,16.77,16.77,16.77s16.77-7.508,16.77-16.77v-64.796c0-3.925-1.377-7.725-3.891-10.739L146.882,290.335z"/>
			<circle cx="333.893" cy="38.743" r="27.185"/>
			<path d="M457.4,32.578c-3.404-5.545-10.658-7.28-16.206-3.874l-78.953,48.484c-4.382,0-39.077,0-43.351,0L237.068,42.19
				c-5.983-2.558-12.906,0.217-15.467,6.2c-2.559,5.982,0.217,12.907,6.199,15.466l79.251,33.898v76.54L273.359,285.28
				c-2.268,7.472,1.95,15.368,9.422,17.636c7.467,2.269,15.368-1.946,17.637-9.422l31.387-103.393h10.951l10.191,100.71
				c0.784,7.758,7.706,13.428,15.49,12.644c7.768-0.786,13.429-7.721,12.643-15.49c-12.275-121.302-11.421-113.168-11.62-114.221
				v-73.68c1.906-0.669-4.66,3.207,84.066-51.279C459.071,45.378,460.806,38.123,457.4,32.578z"/>
		</g>
	</g>
</g>
<g>
</g>
<g>
</g>
<g>
</g>
<g>
</g>
<g>
</g>
<g>
</g>
<g>
</g>
<g>
</g>
<g>
</g>
<g>
</g>
<g>
</g>
<g>
</g>
<g>
</g>
<g>
</g>
<g>
</g>
</svg>
