<?xml version="1.0" encoding="iso-8859-1"?>
<!-- Generator: Adobe Illustrator 16.0.0, SVG Export Plug-In . SVG Version: 6.00 Build 0)  -->
<!DOCTYPE svg PUBLIC "-//W3C//DTD SVG 1.1//EN" "http://www.w3.org/Graphics/SVG/1.1/DTD/svg11.dtd">
<svg fill="#000000" version="1.1" id="Capa_1" xmlns="http://www.w3.org/2000/svg" xmlns:xlink="http://www.w3.org/1999/xlink" x="0px" y="0px"
	 width="231.023px" height="231.023px" viewBox="0 0 231.023 231.023" style="enable-background:new 0 0 231.023 231.023;"
	 xml:space="preserve">
<g>
	<path d="M213.305,88.512l15.507-17.03c0.887-0.973,1.115-2.378,0.582-3.583c-0.531-1.204-1.725-1.98-3.041-1.98h-87.341V4.617
		c0-2.55-2.067-4.617-4.616-4.617H96.628c-2.549,0-4.616,2.067-4.616,4.617v61.301H4.671c-1.316,0-2.51,0.776-3.041,1.979
		c-0.533,1.205-0.305,2.61,0.582,3.583l15.507,17.031L2.212,105.541c-0.887,0.974-1.115,2.379-0.582,3.584
		c0.531,1.204,1.725,1.98,3.041,1.98h87.341v115.301c0,2.55,2.067,4.617,4.616,4.617h37.768c2.549,0,4.616-2.067,4.616-4.617v-115.3
		h87.341c1.316,0,2.51-0.776,3.041-1.979c0.533-1.205,0.305-2.61-0.582-3.584L213.305,88.512z"/>
</g>
<g>
</g>
<g>
</g>
<g>
</g>
<g>
</g>
<g>
</g>
<g>
</g>
<g>
</g>
<g>
</g>
<g>
</g>
<g>
</g>
<g>
</g>
<g>
</g>
<g>
</g>
<g>
</g>
<g>
</g>
</svg>
