<?xml version="1.0" encoding="iso-8859-1"?>
<!-- Generator: Adobe Illustrator 16.0.0, SVG Export Plug-In . SVG Version: 6.00 Build 0)  -->
<!DOCTYPE svg PUBLIC "-//W3C//DTD SVG 1.1//EN" "http://www.w3.org/Graphics/SVG/1.1/DTD/svg11.dtd">
<svg fill="#000000" version="1.1" id="Capa_1" xmlns="http://www.w3.org/2000/svg" xmlns:xlink="http://www.w3.org/1999/xlink" x="0px" y="0px"
	 width="442.548px" height="442.548px" viewBox="0 0 442.548 442.548" style="enable-background:new 0 0 442.548 442.548;"
	 xml:space="preserve">
<g>
	<path d="M415.264,168.488L382.837,48.455c-0.996-3.667-2.532-7.13-4.381-10.391c2.745-3.927,4.381-8.685,4.381-13.839
		C382.837,10.843,371.985,0,358.612,0H81.106c-13.38,0-24.219,10.848-24.219,24.225c0,6.695,2.708,12.752,7.107,17.141
		c-1.806,3.198-3.299,6.604-4.272,10.197L27.299,171.596c-4.389,16.251,1.987,29.967,14.479,33.234v237.717h361.037V200.933
		C413.891,196.735,419.39,183.796,415.264,168.488z M311.258,68.569l27.398,101.416c0.421,1.579,1.051,3.092,1.652,4.61
		c-12.236,20.033-30.014,28.733-49.385,23.915c-17.005-4.219-28.87-17.269-29.127-26.525V73.243c0-1.598-0.241-3.139-0.477-4.673
		H311.258z M103.908,173.098l28.234-104.529h47.541c-0.241,1.535-0.476,3.075-0.476,4.673V173.84l-0.061-0.03
		c-11.304,21.382-28.776,30.925-47.913,26.17c-15.863-3.934-26.922-16.183-26.922-24.706h-1.193
		C103.371,174.54,103.705,173.845,103.908,173.098z M300.752,417.874H105.97v-77.91h34.955c3.35-7.561,10.891-12.849,19.699-12.849
		c8.794,0,16.345,5.288,19.689,12.849h71.141c1-10.977,10.128-19.601,21.367-19.601c11.229,0,20.361,8.624,21.356,19.601h6.578
		v77.91H300.752z M146.076,311.915c0-8.384,6.807-15.188,15.195-15.188s15.189,6.805,15.189,15.188c0,8.396-6.801,15.2-15.189,15.2
		S146.076,320.311,146.076,311.915z M258.272,305.163c0-8.384,6.802-15.191,15.189-15.191c8.39,0,15.192,6.808,15.192,15.191
		c0,8.393-6.803,15.2-15.192,15.2C265.074,320.363,258.272,313.556,258.272,305.163z M384.119,423.85h-23.893V266.213H85.977V423.85
		h-25.5V205.851l5.489,0.106c12.99,0.263,26.539-9.498,33.877-23.064c4.192,10.142,15.936,19.68,29.899,23.145
		c2.726,0.675,6.534,1.337,11,1.337c11.003,0,25.98-4.047,38.511-21.787c0.236,16.906,14.052,24.52,31.12,24.52h20.256
		c14.72,0,26.972-10.235,30.244-23.953c6.029,8.292,16.558,15.436,28.558,18.408c2.917,0.727,7.004,1.434,11.781,1.434
		c12.088,0,28.635-4.578,42.273-24.818c7.483,12.832,20.562,21.91,33.108,21.665l7.526-0.146V423.85z"/>
</g>
<g>
</g>
<g>
</g>
<g>
</g>
<g>
</g>
<g>
</g>
<g>
</g>
<g>
</g>
<g>
</g>
<g>
</g>
<g>
</g>
<g>
</g>
<g>
</g>
<g>
</g>
<g>
</g>
<g>
</g>
</svg>
