<?xml version="1.0" encoding="iso-8859-1"?>
<!-- Generator: Adobe Illustrator 18.0.0, SVG Export Plug-In . SVG Version: 6.00 Build 0)  -->
<!DOCTYPE svg PUBLIC "-//W3C//DTD SVG 1.1//EN" "http://www.w3.org/Graphics/SVG/1.1/DTD/svg11.dtd">
<svg fill="#000000" version="1.1" id="Capa_1" xmlns="http://www.w3.org/2000/svg" xmlns:xlink="http://www.w3.org/1999/xlink" x="0px" y="0px"
	 viewBox="0 0 430.344 430.344" style="enable-background:new 0 0 430.344 430.344;" xml:space="preserve">
<g>
	<path d="M119.889,233.546c0-11.498-3.432-27.447-8.744-40.631c-4.86-12.065-13.186-26.446-25.249-26.446
		c-5.195,0-9.695,2.671-13.525,6.672c-5.133-10.548-12.539-20.174-22.472-20.174c-12.064,0-20.39,14.382-25.249,26.447
		c-5.31,13.183-8.741,29.133-8.741,40.634c0,25.203,17.402,29.245,28.488,29.894v34.151c0,3.038,2.462,5.5,5.5,5.5
		s5.5-2.462,5.5-5.5v-34.148c5.649,10.766,16.973,13.029,24.998,13.498v34.149c0,3.038,2.462,5.5,5.5,5.5s5.5-2.462,5.5-5.5v-34.148
		C102.484,262.794,119.889,258.752,119.889,233.546z M26.91,220.047c0-10.049,3.192-24.727,7.944-36.524
		c5.813-14.435,11.738-19.556,15.045-19.556c3.671,0,9.645,6.114,15.079,19.67c-1.665,3.062-3.108,6.243-4.33,9.278
		c-5.312,13.184-8.744,29.133-8.744,40.631c0,1.956,0.11,3.779,0.308,5.489c-0.742,0.021-1.511,0.032-2.313,0.032
		C32.711,239.066,26.91,234.267,26.91,220.047z M85.971,252.567c-0.025,0-0.049-0.004-0.074-0.004s-0.049,0.003-0.074,0.004
		c-17.132-0.014-22.918-4.82-22.918-19.021c0-10.046,3.193-24.722,7.947-36.521c5.815-14.435,11.739-19.557,15.045-19.557
		s9.23,5.122,15.045,19.557c4.753,11.799,7.947,26.475,7.947,36.521C108.889,247.747,103.103,252.553,85.971,252.567z"/>
	<path d="M425.004,118.901c-5.759-0.168-11.53-0.013-17.308,0.427v-7.686c6.106-1.256,11.627-5.118,11.627-14.985
		c0-8.435-5.267-30.627-17.127-30.627S385.07,88.222,385.07,96.657c0,9.867,5.521,13.729,11.626,14.985v8.891
		c-17.97,2.562-35.997,8.026-53.985,16.395l-34.779-5.509c-1.038-0.414-1.989-0.762-2.664-1.021
		c-39.424-15.101-80.676-25.272-122.671-30.283c-3.296-13.396-10.331-28.206-20.953-28.206c-9.773,0-16.508,12.538-20.09,24.977
		c-10.064-0.39-20.128-0.469-30.179-0.27v-4.155c6.106-1.256,11.627-5.118,11.627-14.985c0-8.435-5.266-30.627-17.126-30.627
		S88.748,69.041,88.748,77.476c0,9.866,5.521,13.729,11.626,14.985v4.48c-9.01,0.371-18.005,0.981-26.976,1.825v-3.622
		c6.106-1.256,11.626-5.119,11.626-14.985c0-8.435-5.266-30.627-17.126-30.627S50.772,71.724,50.772,80.159
		c0,9.867,5.521,13.729,11.626,14.985v4.785c-18.156,2.103-36.198,5.161-54.042,9.201c-2.963,0.671-4.821,3.616-4.15,6.579
		c0.578,2.554,2.847,4.287,5.359,4.287c0.402,0,0.811-0.044,1.219-0.137c42.05-9.521,85.208-13.563,128.386-12.057
		c-0.428,2.895-0.648,5.534-0.648,7.689c0,15.875,10.267,19.551,17.62,20.404v19.203c0,3.038,2.462,5.5,5.5,5.5s5.5-2.462,5.5-5.5
		v-19.203c7.353-0.853,17.621-4.528,17.621-20.404c0-1.215-0.069-2.582-0.205-4.062c31.959,4.026,63.456,11.121,93.997,21.154
		c-21.388,2.483-47.797,7.408-72.651,14.965c-30.424,9.25-69.055,25.797-80.319,52.092c-3.712,8.666-3.549,16.374,0.483,22.91
		c12.076,19.576,56.489,22.271,103.51,25.125c34.977,2.123,74.619,4.529,84.071,15.325c1.371,1.566,1.919,3.148,1.776,5.13
		c-0.849,11.761-38.901,21.727-55.224,25.466c-34.25,7.846-78.637,13.915-121.563,19.784
		c-78.14,10.684-126.582,17.914-137.42,31.353c-1.907,2.365-1.536,5.827,0.829,7.734c1.017,0.82,2.237,1.219,3.449,1.219
		c1.606,0,3.198-0.7,4.285-2.048c2.032-2.519,10.354-7.698,43.259-14.08c24-4.654,54.645-8.844,87.088-13.28
		c111.201-15.204,184.242-27.271,186.267-55.358c0.356-4.941-1.147-9.371-4.471-13.166c-12.478-14.252-49.182-16.479-91.681-19.059
		c-40.188-2.439-85.736-5.203-94.815-19.92c-2.072-3.359-1.985-7.547,0.267-12.804c7.597-17.736,32.981-33.607,73.408-45.899
		c34.332-10.438,71.613-15.715,93.587-16.345l7.159,1.134c-16.974,2.469-36.649,5.958-55.962,10.47
		c-38.253,8.936-64.234,19.26-77.221,30.685c-2.941,2.587-10.754,9.459-7.783,16.624c3.963,9.56,21.42,8.822,64.057,6.063
		c55.177-3.571,138.563-8.968,166.881,25.061c10.263,12.333,14.535,24.782,13.062,38.058c-3.722,33.54-43.116,63.846-69.184,83.901
		c-16.302,12.541-22.947,17.857-23.702,23.55c-0.399,3.011,1.718,5.776,4.729,6.175c0.245,0.033,0.488,0.049,0.729,0.049
		c2.584,0,4.848-1.821,5.378-4.38c1.452-2.735,11.07-10.135,19.572-16.676c27.545-21.191,69.172-53.215,73.409-91.406
		c1.796-16.178-3.433-31.758-15.539-46.307c-31.898-38.332-115.214-32.94-176.047-29.002c-20.318,1.315-45.22,2.927-52.28,0.646
		c0.646-0.865,1.829-2.202,3.982-4.096c21.342-18.774,84.632-32.284,128.776-38.685c-2.486,1.606-4.971,3.267-7.453,4.983
		c-2.498,1.728-3.124,5.153-1.396,7.652c1.068,1.544,2.784,2.373,4.529,2.373c1.078,0,2.169-0.317,3.123-0.976
		c37.777-26.117,75.867-38.801,113.173-37.725c0.055,0.002,0.109,0.002,0.163,0.002c2.964,0,5.408-2.358,5.495-5.34
		C430.43,121.522,428.04,118.989,425.004,118.901z M402.196,77.385c2.41,2.473,6.127,12.274,6.127,19.272
		c0,3.187,0,4.506-6.127,4.506c-3.186,0-4.537-0.469-5.111-0.862c-0.839-0.575-1.015-2.299-1.015-3.645
		C396.07,89.66,399.787,79.858,402.196,77.385z M67.898,84.665c-3.186,0-4.538-0.469-5.111-0.862
		c-0.839-0.575-1.015-2.3-1.015-3.645c0-6.997,3.717-16.798,6.126-19.272c2.41,2.474,6.126,12.275,6.126,19.272
		C74.024,83.346,74.024,84.665,67.898,84.665z M105.875,81.983c-3.186,0-4.538-0.469-5.111-0.862
		c-0.839-0.575-1.015-2.3-1.015-3.645c0-6.997,3.717-16.798,6.126-19.272c2.409,2.474,6.126,12.275,6.126,19.272
		C112.001,80.664,112.001,81.983,105.875,81.983z M161.684,125.155c-0.014,0-0.027-0.002-0.041-0.002s-0.027,0.002-0.041,0.002
		c-9.48-0.006-12.079-2.089-12.079-9.664c0-5.876,1.958-14.841,4.763-21.801c3.313-8.225,6.553-10.78,7.358-10.78
		s4.044,2.555,7.358,10.78c2.804,6.96,4.763,15.925,4.763,21.801C173.764,123.067,171.164,125.149,161.684,125.155z"/>
</g>
<g>
</g>
<g>
</g>
<g>
</g>
<g>
</g>
<g>
</g>
<g>
</g>
<g>
</g>
<g>
</g>
<g>
</g>
<g>
</g>
<g>
</g>
<g>
</g>
<g>
</g>
<g>
</g>
<g>
</g>
</svg>
