<?xml version="1.0" encoding="iso-8859-1"?>
<!-- Generator: Adobe Illustrator 19.0.0, SVG Export Plug-In . SVG Version: 6.00 Build 0)  -->
<svg fill="#000000" version="1.1" id="Capa_1" xmlns="http://www.w3.org/2000/svg" xmlns:xlink="http://www.w3.org/1999/xlink" x="0px" y="0px"
	 viewBox="0 0 489.6 489.6" style="enable-background:new 0 0 489.6 489.6;" xml:space="preserve">
<g>
	<g>
		<path d="M361.1,337.6c2.2,1.5,4.6,2.3,7.1,2.3c3.8,0,7.6-1.8,10-5.2c18.7-26.3,28.5-57.4,28.5-89.9s-9.9-63.6-28.5-89.9
			c-3.9-5.5-11.6-6.8-17.1-2.9c-5.5,3.9-6.8,11.6-2.9,17.1c15.7,22.1,24,48.3,24,75.8c0,27.4-8.3,53.6-24,75.8
			C354.3,326.1,355.6,333.7,361.1,337.6z"/>
		<path d="M425.4,396.3c2.2,1.5,4.6,2.3,7.1,2.3c3.8,0,7.6-1.8,10-5.2c30.8-43.4,47.1-94.8,47.1-148.6s-16.3-105.1-47.1-148.6
			c-3.9-5.5-11.6-6.8-17.1-2.9c-5.5,3.9-6.8,11.6-2.9,17.1c27.9,39.3,42.6,85.7,42.6,134.4c0,48.6-14.7,95.1-42.6,134.4
			C418.6,384.7,419.9,392.3,425.4,396.3z"/>
		<path d="M254.7,415.7c4.3,2.5,9.2,3.8,14.2,3.8l0,0c7.4,0,14.4-2.8,19.7-7.9c5.6-5.4,8.7-12.6,8.7-20.4V98.5
			c0-15.7-12.7-28.4-28.4-28.4c-4.9,0-9.8,1.3-14.2,3.8c-0.3,0.2-0.6,0.3-0.8,0.5l-100.1,69.2H73.3C32.9,143.6,0,176.5,0,216.9v55.6
			c0,40.4,32.9,73.3,73.3,73.3h84.5l95.9,69.2C254,415.3,254.4,415.5,254.7,415.7z M161.8,321.3H73.3c-26.9,0-48.8-21.9-48.8-48.8
			v-55.6c0-26.9,21.9-48.8,48.8-48.8h84.3c2.5,0,4.9-0.8,7-2.2l102.7-71c0.5-0.3,1.1-0.4,1.6-0.4c1.6,0,3.9,1.2,3.9,3.9v292.7
			c0,1.1-0.4,2-1.1,2.8c-0.7,0.7-1.8,1.1-2.7,1.1c-0.5,0-1-0.1-1.5-0.3l-98.4-71.1C166.9,322.1,164.4,321.3,161.8,321.3z"/>
	</g>
</g>
<g>
</g>
<g>
</g>
<g>
</g>
<g>
</g>
<g>
</g>
<g>
</g>
<g>
</g>
<g>
</g>
<g>
</g>
<g>
</g>
<g>
</g>
<g>
</g>
<g>
</g>
<g>
</g>
<g>
</g>
</svg>
