<?xml version="1.0" encoding="iso-8859-1"?>
<!-- Generator: Adobe Illustrator 19.0.0, SVG Export Plug-In . SVG Version: 6.00 Build 0)  -->
<svg fill="#000000" version="1.1" id="Capa_1" xmlns="http://www.w3.org/2000/svg" xmlns:xlink="http://www.w3.org/1999/xlink" x="0px" y="0px"
	 viewBox="0 0 60.001 60.001" style="enable-background:new 0 0 60.001 60.001;" xml:space="preserve">
<g>
	<path d="M1.501,36.003c0.329,0,0.66-0.107,0.937-0.329c0.804-0.644,1.73-1.063,2.716-1.269C5.94,38.856,9.827,42.25,14.5,42.25
		c0.829,0,1.5-0.671,1.5-1.5c0-3.122,2.213-5.735,5.152-6.357c0.782,4.457,4.671,7.857,9.348,7.857c0.829,0,1.5-0.671,1.5-1.5
		c0-3.122,2.213-5.735,5.152-6.357c0.782,4.457,4.671,7.857,9.348,7.857c0.829,0,1.5-0.671,1.5-1.5c0-3.125,2.218-5.741,5.161-6.36
		c0.484,2.737,2.14,5.176,4.589,6.59c0.236,0.137,0.495,0.202,0.749,0.202c0.518,0,1.022-0.269,1.3-0.75
		c0.415-0.717,0.169-1.635-0.548-2.049C57.246,37.225,56,35.066,56,32.75c0-0.829-0.671-1.5-1.5-1.5
		c-4.677,0-8.566,3.401-9.348,7.857C42.213,38.485,40,35.872,40,32.75c0-0.829-0.671-1.5-1.5-1.5c-4.677,0-8.566,3.401-9.348,7.857
		C26.213,38.485,24,35.872,24,32.75c0-0.829-0.671-1.5-1.5-1.5c-4.677,0-8.566,3.401-9.348,7.857C10.213,38.485,8,35.872,8,32.75
		c0-0.829-0.671-1.5-1.5-1.5c-2.153,0-4.262,0.739-5.938,2.082c-0.646,0.518-0.75,1.462-0.233,2.109
		C0.626,35.811,1.061,36.003,1.501,36.003z"/>
	<path d="M59.251,46.383C57.246,45.225,56,43.066,56,40.75c0-0.829-0.671-1.5-1.5-1.5c-4.677,0-8.566,3.401-9.348,7.857
		C42.213,46.485,40,43.872,40,40.75c0-0.829-0.671-1.5-1.5-1.5c-4.677,0-8.566,3.401-9.348,7.857C26.213,46.485,24,43.872,24,40.75
		c0-0.829-0.671-1.5-1.5-1.5c-4.677,0-8.566,3.401-9.348,7.857C10.213,46.485,8,43.872,8,40.75c0-0.829-0.671-1.5-1.5-1.5
		c-2.153,0-4.262,0.739-5.938,2.082c-0.646,0.518-0.75,1.462-0.233,2.109c0.296,0.37,0.732,0.562,1.172,0.562
		c0.329,0,0.66-0.107,0.937-0.329c0.804-0.644,1.73-1.063,2.716-1.269C5.94,46.856,9.827,50.25,14.5,50.25
		c0.829,0,1.5-0.671,1.5-1.5c0-3.122,2.213-5.735,5.152-6.357c0.782,4.457,4.671,7.857,9.348,7.857c0.829,0,1.5-0.671,1.5-1.5
		c0-3.122,2.213-5.735,5.152-6.357c0.782,4.457,4.671,7.857,9.348,7.857c0.829,0,1.5-0.671,1.5-1.5c0-3.125,2.218-5.741,5.161-6.36
		c0.484,2.737,2.14,5.176,4.589,6.59c0.236,0.137,0.495,0.202,0.749,0.202c0.518,0,1.022-0.269,1.3-0.75
		C60.214,47.715,59.968,46.798,59.251,46.383z"/>
	<path d="M59.251,54.383C57.246,53.225,56,51.066,56,48.75c0-0.829-0.671-1.5-1.5-1.5c-4.677,0-8.566,3.401-9.348,7.857
		C42.213,54.485,40,51.872,40,48.75c0-0.829-0.671-1.5-1.5-1.5c-4.677,0-8.566,3.401-9.348,7.857C26.213,54.485,24,51.872,24,48.75
		c0-0.829-0.671-1.5-1.5-1.5c-4.677,0-8.566,3.401-9.348,7.857C10.213,54.485,8,51.872,8,48.75c0-0.829-0.671-1.5-1.5-1.5
		c-2.153,0-4.262,0.739-5.938,2.082c-0.646,0.518-0.75,1.462-0.233,2.109c0.296,0.37,0.732,0.562,1.172,0.562
		c0.329,0,0.66-0.107,0.937-0.329c0.804-0.644,1.73-1.063,2.716-1.269C5.94,54.856,9.827,58.25,14.5,58.25
		c0.829,0,1.5-0.671,1.5-1.5c0-3.122,2.213-5.735,5.152-6.357c0.782,4.457,4.671,7.857,9.348,7.857c0.829,0,1.5-0.671,1.5-1.5
		c0-3.122,2.213-5.735,5.152-6.357c0.782,4.457,4.671,7.857,9.348,7.857c0.829,0,1.5-0.671,1.5-1.5c0-3.125,2.218-5.741,5.161-6.36
		c0.484,2.737,2.14,5.176,4.589,6.59c0.236,0.137,0.495,0.202,0.749,0.202c0.518,0,1.022-0.269,1.3-0.75
		C60.214,55.715,59.968,54.798,59.251,54.383z"/>
	<path d="M40,30.75c5.238,0,9.5-4.262,9.5-9.5s-4.262-9.5-9.5-9.5H20c-0.829,0-1.5,0.671-1.5,1.5s0.671,1.5,1.5,1.5h20
		c3.584,0,6.5,2.916,6.5,6.5s-2.916,6.5-6.5,6.5c-0.829,0-1.5,0.671-1.5,1.5S39.171,30.75,40,30.75z"/>
	<path d="M38.5,26.75c3.033,0,5.5-2.467,5.5-5.5s-2.467-5.5-5.5-5.5c-0.829,0-1.5,0.671-1.5,1.5s0.671,1.5,1.5,1.5
		c1.378,0,2.5,1.122,2.5,2.5s-1.122,2.5-2.5,2.5s-2.5-1.122-2.5-2.5c0-0.829-0.671-1.5-1.5-1.5s-1.5,0.671-1.5,1.5
		C33,24.283,35.467,26.75,38.5,26.75z"/>
	<path d="M34,17.25c0-0.829-0.671-1.5-1.5-1.5h-6c-0.829,0-1.5,0.671-1.5,1.5s0.671,1.5,1.5,1.5h6C33.329,18.75,34,18.079,34,17.25z
		"/>
	<path d="M11,4.75h31c0.829,0,1.5-0.671,1.5-1.5s-0.671-1.5-1.5-1.5H11c-0.829,0-1.5,0.671-1.5,1.5S10.171,4.75,11,4.75z"/>
	<path d="M13.5,8.25c0,0.829,0.671,1.5,1.5,1.5h36c0.829,0,1.5-0.671,1.5-1.5s-0.671-1.5-1.5-1.5H15
		C14.171,6.75,13.5,7.422,13.5,8.25z"/>
</g>
<g>
</g>
<g>
</g>
<g>
</g>
<g>
</g>
<g>
</g>
<g>
</g>
<g>
</g>
<g>
</g>
<g>
</g>
<g>
</g>
<g>
</g>
<g>
</g>
<g>
</g>
<g>
</g>
<g>
</g>
</svg>
