<?xml version="1.0" encoding="iso-8859-1"?>
<!-- Generator: Adobe Illustrator 17.1.0, SVG Export Plug-In . SVG Version: 6.00 Build 0)  -->
<!DOCTYPE svg PUBLIC "-//W3C//DTD SVG 1.1//EN" "http://www.w3.org/Graphics/SVG/1.1/DTD/svg11.dtd">
<svg fill="#000000" version="1.1" id="Capa_1" xmlns="http://www.w3.org/2000/svg" xmlns:xlink="http://www.w3.org/1999/xlink" x="0px" y="0px"
	 viewBox="0 0 365.447 365.447" style="enable-background:new 0 0 365.447 365.447;" xml:space="preserve">
<g>
	<g>
		<path d="M306.069,189.427H7.5c-4.143,0-7.5-3.358-7.5-7.5s3.357-7.5,7.5-7.5h297.119c0.469-0.092,0.954-0.14,1.45-0.14
			c24.47,0,44.378-19.908,44.378-44.378S330.539,85.53,306.069,85.53s-44.378,19.908-44.378,44.378c0,4.142-3.357,7.5-7.5,7.5
			s-7.5-3.358-7.5-7.5c0-32.741,26.637-59.378,59.378-59.378s59.378,26.637,59.378,59.378c0,32.224-25.801,58.535-57.829,59.358
			C307.118,189.372,306.601,189.427,306.069,189.427z"/>
	</g>
	<g>
		<path d="M152.283,137.479H7.5c-4.143,0-7.5-3.358-7.5-7.5s3.357-7.5,7.5-7.5h143.333c0.469-0.092,0.954-0.14,1.45-0.14
			c24.47,0,44.378-19.908,44.378-44.378s-19.908-44.378-44.378-44.378c-24.471,0-44.379,19.908-44.379,44.378
			c0,4.142-3.357,7.5-7.5,7.5s-7.5-3.358-7.5-7.5c0-32.741,26.638-59.378,59.379-59.378s59.378,26.637,59.378,59.378
			c0,32.224-25.801,58.535-57.829,59.358C153.332,137.423,152.814,137.479,152.283,137.479z"/>
	</g>
	<g>
		<path d="M244.186,346.866c-32.741,0-59.379-26.637-59.379-59.378c0-4.142,3.357-7.5,7.5-7.5s7.5,3.358,7.5,7.5
			c0,24.47,19.908,44.378,44.379,44.378c24.47,0,44.378-19.908,44.378-44.378s-19.908-44.378-44.378-44.378H7.5
			c-4.143,0-7.5-3.358-7.5-7.5s3.357-7.5,7.5-7.5h236.686c32.741,0,59.378,26.637,59.378,59.378S276.927,346.866,244.186,346.866z"
			/>
	</g>
</g>
<g>
</g>
<g>
</g>
<g>
</g>
<g>
</g>
<g>
</g>
<g>
</g>
<g>
</g>
<g>
</g>
<g>
</g>
<g>
</g>
<g>
</g>
<g>
</g>
<g>
</g>
<g>
</g>
<g>
</g>
</svg>
