<svg x="0" y="0" width="700" height="350" viewBox="0 0 700 350" xmlns="http://www.w3.org/2000/svg" xmlns:xlink="http://www.w3.org/1999/xlink" xmlns:fi="http://pattern.flaticon.com/"><rect x="0px" y="0px" width="100%" height="100%" opacity="0" fill="#fff7d0"/><defs><g transform="matrix(0.3128196597099304 0.05045478045940399 -0.05045478045940399 0.3128196597099304 18.44004249572754 45.7869987487793)" id="L1_0"><path d="m330.445312 0c-19.511718 0-37.488281 10.578125-46.964843 27.632812-59.679688 107.429688-148.253907 196-255.679688 255.683594-17.054687 9.472656-27.632812 27.449219-27.632812 46.960938 0 29.671875 24.050781 53.722656 53.722656 53.722656 182.40625 0 330.277344-147.871094 330.277344-330.277344 0-29.671875-24.054688-53.722656-53.722657-53.722656zm0 0" fill="#f59707"/><path d="m42.832031 330.269531h-42.664062c.003906-19.511719 10.585937-37.484375 27.644531-46.957031 107.441406-59.664062 196.011719-148.242188 255.667969-255.6875l37.289062 20.707031c-63.507812 114.421875-157.824219 208.75-272.238281 272.273438-3.515625 1.945312-5.699219 5.648437-5.699219 9.664062zm0 0" fill="#ef7f00"/><path d="m.167969 403.109375c-.015625-24.203125 13.195312-46.484375 34.441406-58.082031 41.957031-22.992188 115.128906-67.933594 178.890625-131.695313s108.703125-136.933593 131.695312-178.886719c11.597657-21.246093 33.875-34.460937 58.082032-34.445312 36.574218 0 66.222656 29.648438 66.222656 66.222656 0 43.285156-7.925781 86.347656-25.082031 126.085938-18.269531 42.324218-49.566407 95.671875-102.917969 149.023437-53.351562 53.351563-106.703125 84.648438-149.023438 102.917969-39.738281 17.15625-82.804687 25.082031-126.085937 25.082031-36.574219 0-66.222656-29.648437-66.222656-66.222656zm0 0" fill="#cd3e36"/><path d="m66.386719 469.332031c-36.558594-.042969-66.179688-29.671875-66.21875-66.226562h42.664062c.007813 13.003906 10.546875 23.546875 23.554688 23.5625 39.28125 0 76.007812-7.273438 109.175781-21.585938 48.886719-21.101562 94.5625-52.6875 135.769531-93.914062 41.210938-41.210938 72.804688-86.898438 93.917969-135.773438 14.324219-33.1875 21.582031-69.914062 21.582031-109.164062h42.667969c0 45.082031-8.4375 87.5-25.082031 126.082031-23.25 53.855469-57.875 103.980469-102.917969 149.019531-45.03125 45.042969-95.175781 79.667969-149.019531 102.917969-38.542969 16.644531-80.960938 25.082031-126.09375 25.082031zm0 0" fill="#c11107"/><path d="m106.832031 394.667969h-21.332031v-10.667969c.011719-11.777344 9.554688-21.320312 21.332031-21.332031 35.332031-.039063 63.960938-28.671875 64-64v-21.335938c.011719-11.777343 9.558594-21.320312 21.335938-21.332031h21.332031c35.332031-.039062 63.960938-28.667969 64-64v-21.332031c.011719-11.777344 9.554688-21.324219 21.332031-21.335938h21.335938c35.328125-.039062 63.960937-28.667969 64-64 .011719-11.777343 9.554687-21.320312 21.332031-21.332031h10.667969v21.332031h-10.667969c-.050781 47.109375-38.226562 85.285157-85.332031 85.335938h-21.335938v21.332031c-.050781 47.109375-38.222656 85.28125-85.332031 85.332031h-21.332031v21.335938c-.050781 47.105469-38.226563 85.28125-85.335938 85.332031zm0 0" fill="#c11107"/><path d="m42.832031 384c.039063-35.332031 28.671875-63.960938 64-64 11.777344-.011719 21.324219-9.554688 21.335938-21.332031v-21.335938c.039062-35.328125 28.667969-63.960937 64-64h21.332031c11.777344-.011719 21.320312-9.554687 21.332031-21.332031v-21.332031c.039063-35.332031 28.671875-63.960938 64-64h21.335938c11.777343-.011719 21.320312-9.558594 21.332031-21.335938.039062-35.328125 28.667969-63.960937 64-64v42.667969c-11.777344.011719-21.320312 9.554688-21.332031 21.332031-.039063 35.332031-28.671875 63.960938-64 64h-21.335938c-11.777343.011719-21.320312 9.558594-21.332031 21.335938v21.332031c-.039062 35.332031-28.667969 63.960938-64 64h-21.332031c-11.777344.011719-21.324219 9.554688-21.335938 21.332031v21.335938c-.039062 35.328125-28.667969 63.960937-64 64-11.777343.011719-21.320312 9.554687-21.332031 21.332031zm0 0" fill="#fee3aa"/><path d="m415.777344 85.332031c-19.511719 0-37.488282 10.578125-46.960938 27.632813-59.683594 107.429687-148.253906 196-255.683594 255.683594-17.054687 9.476562-27.632812 27.453124-27.632812 46.960937 0 29.671875 24.050781 53.722656 53.722656 53.722656 182.40625 0 330.277344-147.867187 330.277344-330.277343 0-29.667969-24.050781-53.722657-53.722656-53.722657zm0 0" fill="#ef7f00"/><path d="m393.398438 130.449219c-12.851563-9.140625-30.984376-5.84375-39.246094 7.589843-59.277344 96.414063-142.414063 175.910157-241.386719 230.8125-14.175781 7.863282-24.175781 21.542969-26.511719 37.585938-5.011718 34.421875 26.25 62.269531 60.222656 54.796875 143.429688-31.558594 251.976563-156.054687 258.695313-307.292969.289063-9.316406-4.136719-18.148437-11.773437-23.492187zm0 0" fill="#f59707"/><path d="m133.863281 405.9375-20.726562-37.292969c107.445312-59.660156 196.019531-148.238281 255.675781-255.6875 11.894531-21.394531 36.746094-32.046875 60.445312-25.902343 23.695313 6.140624 40.242188 27.527343 40.242188 52.007812h-42.667969c0-5.042969-3.410156-9.445312-8.289062-10.707031-4.878907-1.265625-10 .925781-12.449219 5.332031-63.511719 114.414062-157.820312 208.730469-272.230469 272.25zm0 0" fill="#fdbc34"/><path d="m361.011719 204.519531-34.5625-25c15.425781-21.324219 29.570312-43.550781 42.351562-66.5625 11.898438-21.394531 36.75-32.046875 60.449219-25.90625 23.699219 6.144531 40.246094 27.53125 40.25 52.011719h-42.667969c0-5.042969-3.410156-9.445312-8.289062-10.707031-4.878907-1.265625-10 .925781-12.449219 5.332031-13.601562 24.488281-28.65625 48.140625-45.082031 70.832031zm0 0" fill="#fdcf6d"/><g fill="#fee3aa"><path d="m360.746094 343.421875c-3.5-3.5-10.179688-2.496094-14.917969 2.238281-4.738281 4.738282-5.742187 11.417969-2.238281 14.917969 3.5 3.5 10.175781 2.496094 14.914062-2.238281 4.738282-4.738282 5.742188-11.417969 2.242188-14.917969zm0 0"/><path d="m275.410156 407.421875c-3.5-3.5-10.175781-2.496094-14.914062 2.238281-4.738282 4.738282-5.742188 11.417969-2.242188 14.917969s10.179688 2.496094 14.917969-2.238281c4.738281-4.738282 5.742187-11.417969 2.238281-14.917969zm0 0"/><path d="m382.078125 279.421875c-3.5-3.5-10.179687-2.496094-14.914063 2.238281-4.738281 4.738282-5.742187 11.417969-2.242187 14.917969s10.179687 2.496094 14.917969-2.238281c4.734375-4.738282 5.738281-11.417969 2.238281-14.917969zm0 0"/><path d="m424.746094 258.089844c-3.5-3.503906-10.179688-2.5-14.917969 2.238281s-5.742187 11.417969-2.238281 14.917969c3.5 3.5 10.175781 2.496094 14.914062-2.242188 4.738282-4.738281 5.742188-11.414062 2.242188-14.914062zm0 0"/><path d="m318.078125 364.753906c-3.5-3.5-10.179687-2.496094-14.914063 2.242188-4.738281 4.738281-5.742187 11.414062-2.242187 14.914062 3.5 3.503906 10.179687 2.5 14.917969-2.238281 4.734375-4.738281 5.738281-11.417969 2.238281-14.917969zm0 0"/></g></g><g transform="matrix(0.05759641155600548 -0.021598655730485916 0.021598655730485916 0.05759641155600548 195.7260284423828 7.784563064575195)" id="L1_1"><path d="M363.861,298.915v184.072c0,16.022-12.991,29.013-29.024,29.013H177.162  c-16.032,0-29.024-12.991-29.024-29.013V298.605c0-6.672,0.745-13.333,2.224-19.932l53.114-145.067l19.559-53.434h64.036  l20.066,53.434l54.365,144.777C363.075,285.179,363.861,292.037,363.861,298.915z" fill="#a5001e"/><path d="M363.861,298.915v184.072c0,16.022-12.991,29.013-29.024,29.013H177.162  c-16.032,0-29.024-12.991-29.024-29.013V298.605c0-6.672,0.745-13.333,2.224-19.932l72.673-198.501h64.036l74.431,198.211  C363.075,285.179,363.861,292.037,363.861,298.915z" fill="#c70024"/><path d="M178.176,482.987V298.605c0-6.672,0.745-13.333,2.224-19.932l49.236-134.482  c2.327-6.357,8.376-10.584,15.146-10.584h62.356l-20.066-53.434h-33.999h-30.037l-72.673,198.501  c-1.479,6.599-2.224,13.26-2.224,19.932v184.382c0,16.022,12.991,29.013,29.024,29.013H207.2  C191.167,512,178.176,499.009,178.176,482.987z" fill="#a5001e"/><path d="M305.425,486.145h-98.849c-16.348,0-29.6-13.252-29.6-29.6V330.942c0-16.348,13.252-29.6,29.6-29.6  h98.849c16.348,0,29.6,13.252,29.6,29.6v125.603C335.025,472.893,321.772,486.145,305.425,486.145z" fill="#ff9811"/><path d="M307.717,408.483c0,22.745-17.17,41.787-40.174,46.639c-3.713,0.786-7.571,1.2-11.543,1.2  c-28.558,0-51.717-21.421-51.717-47.838s23.159-47.838,51.717-47.838c3.972,0,7.83,0.414,11.543,1.2  C290.547,366.695,307.717,385.738,307.717,408.483z" fill="#c70024"/><path d="M307.717,408.483c0,22.745-17.17,41.787-40.174,46.639c-22.993-4.851-40.164-23.893-40.164-46.639  s17.17-41.787,40.164-46.639C290.547,366.695,307.717,385.738,307.717,408.483z" fill="#ff0c38"/><path d="M314.198,388.945c-2.067-7.275-8.946-25.879-27.684-38.487c-6.825-4.592-14.661-7.45-22.756-8.672  v-19.413c0-4.284-3.473-7.758-7.758-7.758c-4.284,0-7.758,3.473-7.758,7.758v19.048c-15.218,1.552-29.678,8.68-38.444,20.844  c-4.463,6.194-8.573,13.964-11.743,23.702c-0.578,1.777,0.586,3.668,2.437,3.927c6.448,0.906,20.675,1.576,31.754-7.457  c1.89-1.54,4.739-0.25,4.882,2.184c0.457,7.807,2.85,20.12,12.71,27.472c0.923,0.688,2.16,0.799,3.183,0.271  c4.513-2.326,16.72-10.267,18.669-28.842c0.272-2.595,3.435-3.653,5.226-1.755c6.012,6.371,17.493,14.534,35.022,10.967  C313.65,392.388,314.675,390.626,314.198,388.945z" fill="#5eac24"/><path d="M277.09,345.44c-18.928,4.986-34.257,18.846-41.281,36.864c-1.024-0.703-2.462-0.765-3.558,0.134  c-11.088,9.03-25.31,8.368-31.754,7.458c-1.851-0.259-3.02-2.151-2.441-3.93c3.165-9.733,7.282-17.501,11.74-23.697  c8.771-12.164,23.231-19.29,38.447-20.842v-19.053c0-4.282,3.475-7.758,7.758-7.758c4.282,0,7.758,3.475,7.758,7.758v19.415  C268.329,342.481,272.818,343.692,277.09,345.44z" fill="#4e901e"/><path d="M309.869,28.351v58.016c0,10.53-8.606,19.135-19.135,19.135h-69.467  c-10.53,0-19.135-8.606-19.135-19.135V28.351C202.131,12.764,214.885,0,230.472,0h51.055C297.115,0,309.869,12.764,309.869,28.351z" fill="#ff9811"/><path d="M249.711,105.503h-28.444c-10.53,0-19.135-8.606-19.135-19.135V28.351  C202.131,12.764,214.885,0,230.472,0h28.444c-15.588,0-28.341,12.764-28.341,28.351v58.016  C230.576,96.897,239.182,105.503,249.711,105.503z" fill="#ee8700"/><path d="M272.549,41.891v13.425c0,5.793-5.106,10.541-11.335,10.541h-10.428  c-6.23,0-11.335-4.748-11.335-10.541V41.891H272.549z" fill="#aa6100"/><rect x="202px" y="34px" width="107px" height="15px" fill="#cc7400"/><rect x="202px" y="34px" width="28px" height="15px" id="SVGCleanerId_0" fill="#aa6100"/><rect x="202px" y="34px" width="28px" height="15px" id="SVGCleanerId_0_1_" fill="#aa6100"/></g><g transform="matrix(0.06461131572723389 0.03230565786361694 -0.03230565786361694 0.06461131572723389 7.729752063751221 281.1892395019531)" id="L1_2"><g><rect x="179px" y="86px" width="153px" height="66px" fill="#fee94f"/><path d="M286.582,86 267.495,7.5 244.506,7.5 225.418,86z" fill="#fee94f"/><path d="M333.855,152.784 178.145,152.784 153.613,180.784 153.613,504.5 358.388,504.5     358.388,180.784z" fill="#fee94f"/></g><g><rect x="179px" y="86px" width="30px" height="66px" fill="#e9ca1c"/><path d="M267.495,7.5 244.506,7.5 225.418,86 255.418,86 271,21.917z" fill="#e9ca1c"/><path d="M208.145,152.784 178.145,152.784 153.613,180.784 153.613,504.5 183.613,504.5       183.613,180.784z" fill="#e9ca1c"/></g><g><path d="M350.89,497 161.11,497 161.11,451.83 146.11,451.83 146.11,512 365.89,512 365.89,281.42 350.89,281.42z"/><path d="M340.18,148.612V126.9h-15v18.38H302.5v-22.947h-15v22.947h-24v-22.947h-15v22.947h-26v-22.947h-15v22.947h-20.68V94    h138.36v12.9h15V79h-47.581l-19.21-79h-34.778l-19.209,79H171.82v69.613l-25.71,29.347v253.87h15V183.601l20.431-23.32H330.46    l20.43,23.32v77.819h15v-83.46L340.18,148.612z M250.401,15H261.6l15.44,63.5h-42.08L250.401,15z"/></g><path d="M276.097,336.14h-15v-15h15V336.14z M251.097,336.14h-15v-15h15V336.14z" fill="#ffffff"/></g></defs><g fi:class="KUsePattern"><pattern id="pattern_L1_0" width="350" height="350" patternUnits="userSpaceOnUse"><use xlink:href="#L1_0" x="-350" y="-350"/><use xlink:href="#L1_0" x="0" y="-350"/><use xlink:href="#L1_0" x="350" y="-350"/><use xlink:href="#L1_0" x="-350" y="0"/><use xlink:href="#L1_0" x="0" y="0"/><use xlink:href="#L1_0" x="350" y="0"/><use xlink:href="#L1_0" x="-350" y="350"/><use xlink:href="#L1_0" x="0" y="350"/><use xlink:href="#L1_0" x="350" y="350"/></pattern><rect x="0" y="0" width="100%" height="100%" fill="url(#pattern_L1_0)"/></g><g fi:class="KUsePattern"><pattern id="pattern_L1_1" width="350" height="350" patternUnits="userSpaceOnUse"><use xlink:href="#L1_1" x="-350" y="-350"/><use xlink:href="#L1_1" x="0" y="-350"/><use xlink:href="#L1_1" x="350" y="-350"/><use xlink:href="#L1_1" x="-350" y="0"/><use xlink:href="#L1_1" x="0" y="0"/><use xlink:href="#L1_1" x="350" y="0"/><use xlink:href="#L1_1" x="-350" y="350"/><use xlink:href="#L1_1" x="0" y="350"/><use xlink:href="#L1_1" x="350" y="350"/></pattern><rect x="0" y="0" width="100%" height="100%" fill="url(#pattern_L1_1)"/></g><g fi:class="KUsePattern"><pattern id="pattern_L1_2" width="350" height="350" patternUnits="userSpaceOnUse"><use xlink:href="#L1_2" x="-350" y="-350"/><use xlink:href="#L1_2" x="0" y="-350"/><use xlink:href="#L1_2" x="350" y="-350"/><use xlink:href="#L1_2" x="-350" y="0"/><use xlink:href="#L1_2" x="0" y="0"/><use xlink:href="#L1_2" x="350" y="0"/><use xlink:href="#L1_2" x="-350" y="350"/><use xlink:href="#L1_2" x="0" y="350"/><use xlink:href="#L1_2" x="350" y="350"/></pattern><rect x="0" y="0" width="100%" height="100%" fill="url(#pattern_L1_2)"/></g></svg>
