<?xml version="1.0" encoding="iso-8859-1"?>
<!-- Generator: Adobe Illustrator 16.0.0, SVG Export Plug-In . SVG Version: 6.00 Build 0)  -->
<!DOCTYPE svg PUBLIC "-//W3C//DTD SVG 1.1//EN" "http://www.w3.org/Graphics/SVG/1.1/DTD/svg11.dtd">
<svg fill="#000000" version="1.1" id="Capa_1" xmlns="http://www.w3.org/2000/svg" xmlns:xlink="http://www.w3.org/1999/xlink" x="0px" y="0px"
	 width="344.851px" height="344.851px" viewBox="0 0 344.851 344.851" style="enable-background:new 0 0 344.851 344.851;"
	 xml:space="preserve">
<g>
	<path d="M335.091,9.768c-13.015-13.015-34.115-13.014-47.13,0l-70.51,70.509L103.332,41.452c-1.577-0.537-3.293-0.5-4.846,0.104
		l-52.2,20.283c-1.066,0.328-2.07,0.916-2.915,1.759c-2.748,2.748-2.765,7.191-0.054,9.961c0.021,0.022,0.044,0.044,0.066,0.066
		c0.33,0.33,0.695,0.63,1.094,0.895l107.464,71.266L79.17,218.558l-45.602-15.514c-0.853-0.29-1.781-0.271-2.622,0.056
		L2.785,214.042c-0.752,0.342-1.184,0.598-1.663,1.078c-1.493,1.492-1.497,3.812-0.01,5.309c0.007,0.008,0.015,0.016,0.022,0.021
		c0.178,0.18,0.376,0.342,0.592,0.483l54.014,35.821c0.231,8.211,3.471,16.354,9.739,22.622c6.267,6.267,14.41,9.507,22.621,9.737
		l35.821,54.015c0.791,1.19,2.181,1.845,3.604,1.691c1.423-0.153,2.642-1.088,3.16-2.422l11.07-28.489
		c0.327-0.84,0.346-1.77,0.056-2.623l-15.514-45.602l72.771-72.771l71.268,107.464c1.463,2.204,4.031,3.411,6.662,3.127
		c2.63-0.284,4.883-2.011,5.841-4.476l20.461-52.66c0.603-1.553,0.64-3.269,0.103-4.846l-38.824-114.12l70.509-70.509
		C348.104,43.884,348.104,22.783,335.091,9.768z"/>
</g>
<g>
</g>
<g>
</g>
<g>
</g>
<g>
</g>
<g>
</g>
<g>
</g>
<g>
</g>
<g>
</g>
<g>
</g>
<g>
</g>
<g>
</g>
<g>
</g>
<g>
</g>
<g>
</g>
<g>
</g>
</svg>
