<?xml version="1.0" encoding="iso-8859-1"?>
<!-- Generator: Adobe Illustrator 19.0.0, SVG Export Plug-In . SVG Version: 6.00 Build 0)  -->
<svg fill="#000000" version="1.1" id="Layer_1" xmlns="http://www.w3.org/2000/svg" xmlns:xlink="http://www.w3.org/1999/xlink" x="0px" y="0px"
	 viewBox="0 0 512 512" style="enable-background:new 0 0 512 512;" xml:space="preserve">
<g>
	<g>
		<path d="M503.551,449.951h-43.377V146.709c0-4.666-3.782-8.449-8.449-8.449H441.59V87.565c0-4.666-3.782-8.449-8.449-8.449
			h-12.673V58.839c0-4.666-3.782-8.449-8.449-8.449h-7.603V38.561c0-4.666-3.782-8.449-8.449-8.449s-8.449,3.783-8.449,8.449v11.828
			h-7.603c-4.667,0-8.449,3.783-8.449,8.449v20.277h-12.673c-4.667,0-8.449,3.783-8.449,8.449v50.696h-10.136
			c-4.667,0-8.449,3.783-8.449,8.449v220.998h-58.018V189.898c0-4.666-3.782-8.449-8.449-8.449h-50.132v-38.734
			c32.34-3.744,57.534-31.283,57.534-64.61c0-35.874-29.185-65.059-65.059-65.059c-29.129,0-54.315,19.203-62.388,46.564h-26.397
			c-4.666,0-8.449,3.783-8.449,8.449v144.86H60.277c-4.666,0-8.449,3.783-8.449,8.449v228.583H8.449
			C3.783,449.951,0,453.734,0,458.4s3.783,8.449,8.449,8.449h495.102c4.667,0,8.449-3.783,8.449-8.449
			S508.218,449.951,503.551,449.951z M110.397,449.951H68.725v-24.414h21.844c4.666,0,8.449-3.783,8.449-8.449
			c0-4.666-3.783-8.449-8.449-8.449H68.725v-14.871h21.844c4.666,0,8.449-3.783,8.449-8.449s-3.783-8.449-8.449-8.449H68.725
			v-14.871h21.844c4.666,0,8.449-3.783,8.449-8.449s-3.783-8.449-8.449-8.449H68.725v-14.871h21.844
			c4.666,0,8.449-3.783,8.449-8.449c0-4.666-3.783-8.449-8.449-8.449H68.725V298.46h21.844c4.666,0,8.449-3.783,8.449-8.449
			c0-4.666-3.783-8.449-8.449-8.449H68.725v-14.871h21.844c4.666,0,8.449-3.783,8.449-8.449c0-4.666-3.783-8.449-8.449-8.449H68.725
			v-19.976h41.672V449.951z M388.362,67.289h15.206v11.828h-15.206V67.289z M367.24,96.014h57.45v42.243h-57.45V96.014z
			 M207.631,29.943c26.555,0,48.161,21.604,48.161,48.161c0,23.996-17.642,43.945-40.635,47.569V68.059
			c0-4.666-3.783-8.449-8.449-8.449h-43.573C170.452,41.947,187.81,29.943,207.631,29.943z M177.422,82.567
			c-4.666,0-8.449,3.783-8.449,8.449v344.431c0,0.037,0.005,0.072,0.006,0.109v14.394h-41.683V76.509h70.962v104.94h-12.387V91.016
			C185.871,86.35,182.088,82.567,177.422,82.567z M227.551,376.156v73.795h-41.675V198.347h70.962v169.36H236
			C231.334,367.707,227.551,371.49,227.551,376.156z M406.104,449.951H244.45v-65.345h161.653V449.951z M443.274,449.951h-20.273
			v-73.795c0-4.666-3.782-8.449-8.449-8.449h-65.897V155.159h94.619V449.951z"/>
	</g>
</g>
<g>
	<g>
		<path d="M503.551,482.056H8.449c-4.666,0-8.449,3.783-8.449,8.449s3.783,8.449,8.449,8.449h495.102
			c4.667,0,8.449-3.783,8.449-8.449S508.217,482.056,503.551,482.056z"/>
	</g>
</g>
<g>
	<g>
		<path d="M148.133,82.567c-4.666,0-8.449,3.783-8.449,8.449v344.431c0,4.666,3.783,8.449,8.449,8.449
			c4.666,0,8.449-3.783,8.449-8.449V91.016C156.583,86.35,152.8,82.567,148.133,82.567z"/>
	</g>
</g>
<g>
	<g>
		<path d="M206.712,204.053c-4.666,0-8.449,3.783-8.449,8.449v223.294c0,4.666,3.783,8.449,8.449,8.449
			c4.666,0,8.449-3.783,8.449-8.449V212.502C215.161,207.836,211.378,204.053,206.712,204.053z"/>
	</g>
</g>
<g>
	<g>
		<path d="M236.001,204.053c-4.666,0-8.449,3.783-8.449,8.449v133.613c0,4.666,3.783,8.448,8.449,8.448
			c4.666,0,8.449-3.783,8.449-8.449V212.502C244.45,207.836,240.667,204.053,236.001,204.053z"/>
	</g>
</g>
<g>
	<g>
		<path d="M377.382,166.427c-4.667,0-8.449,3.783-8.449,8.449v171.238c0,4.666,3.782,8.449,8.449,8.449s8.449-3.783,8.449-8.449
			V174.876C385.831,170.21,382.049,166.427,377.382,166.427z"/>
	</g>
</g>
<g>
	<g>
		<path d="M414.553,166.424c-4.667,0-8.449,3.783-8.449,8.449v171.24c0,4.666,3.782,8.449,8.449,8.449s8.449-3.782,8.449-8.449
			v-171.24C423.002,170.207,419.22,166.424,414.553,166.424z"/>
	</g>
</g>
<g>
	<g>
		<path d="M383.574,103.423c-4.667,0-8.449,3.783-8.449,8.449v10.527c0,4.666,3.782,8.449,8.449,8.449
			c4.667,0,8.449-3.783,8.449-8.449v-10.527C392.023,107.206,388.241,103.423,383.574,103.423z"/>
	</g>
</g>
<g>
	<g>
		<path d="M408.357,103.423c-4.667,0-8.449,3.783-8.449,8.449v10.527c0,4.666,3.782,8.449,8.449,8.449
			c4.667,0,8.449-3.783,8.449-8.449v-10.527C416.806,107.206,413.023,103.423,408.357,103.423z"/>
	</g>
</g>
<g>
	<g>
		<path d="M387.237,395.496H263.315c-4.667,0-8.449,3.783-8.449,8.449s3.783,8.449,8.449,8.449h123.922
			c4.667,0,8.449-3.783,8.449-8.449S391.905,395.496,387.237,395.496z"/>
	</g>
</g>
<g>
	<g>
		<path d="M387.237,421.031H263.315c-4.667,0-8.449,3.783-8.449,8.449s3.783,8.449,8.449,8.449h123.922
			c4.667,0,8.449-3.783,8.449-8.449S391.905,421.031,387.237,421.031z"/>
	</g>
</g>
<g>
</g>
<g>
</g>
<g>
</g>
<g>
</g>
<g>
</g>
<g>
</g>
<g>
</g>
<g>
</g>
<g>
</g>
<g>
</g>
<g>
</g>
<g>
</g>
<g>
</g>
<g>
</g>
<g>
</g>
</svg>
