<?xml version="1.0" encoding="iso-8859-1"?>
<!-- Generator: Adobe Illustrator 19.0.0, SVG Export Plug-In . SVG Version: 6.00 Build 0)  -->
<svg fill="#000000" version="1.1" id="Capa_1" xmlns="http://www.w3.org/2000/svg" xmlns:xlink="http://www.w3.org/1999/xlink" x="0px" y="0px"
	 viewBox="0 0 360 360" style="enable-background:new 0 0 360 360;" xml:space="preserve">
<g id="XMLID_28_">
	<path id="XMLID_805_" d="M310,60h-17.889L274.116,9.927C271.976,3.972,266.328,0,260,0H100c-6.328,0-11.976,3.972-14.116,9.927
		L67.889,60H50c-8.284,0-15,6.716-15,15s6.716,15,15,15h16.831c0.003,0.002,0.005,0.005,0.008,0.008l27.223,247.724
		c1.393,12.673,12.1,22.269,24.85,22.269h122.176c12.75,0,23.458-9.595,24.851-22.269l27.223-247.724
		c0.003-0.003,0.005-0.005,0.008-0.008H310c8.284,0,15-6.716,15-15S318.284,60,310,60z M123.393,330l-8.005-72.845
		C129.94,277.06,153.454,290,180,290c26.547,0,50.061-12.94,64.612-32.846L236.607,330H123.393z M249.451,30l10.781,30H99.768
		l10.781-30H249.451z M253.314,177.976C240.961,149.738,212.793,130,180,130c-32.792,0-60.961,19.738-73.313,47.976L97.019,90
		h165.962L253.314,177.976z M230,210c0,27.57-22.43,50-50,50s-50-22.43-50-50s22.43-50,50-50S230,182.43,230,210z"/>
</g>
<g>
</g>
<g>
</g>
<g>
</g>
<g>
</g>
<g>
</g>
<g>
</g>
<g>
</g>
<g>
</g>
<g>
</g>
<g>
</g>
<g>
</g>
<g>
</g>
<g>
</g>
<g>
</g>
<g>
</g>
</svg>
