<?xml version="1.0" encoding="iso-8859-1"?>
<!-- Generator: Adobe Illustrator 16.0.0, SVG Export Plug-In . SVG Version: 6.00 Build 0)  -->
<!DOCTYPE svg PUBLIC "-//W3C//DTD SVG 1.1//EN" "http://www.w3.org/Graphics/SVG/1.1/DTD/svg11.dtd">
<svg fill="#000000" version="1.1" id="Capa_1" xmlns="http://www.w3.org/2000/svg" xmlns:xlink="http://www.w3.org/1999/xlink" x="0px" y="0px"
	 width="31.078px" height="31.078px" viewBox="0 0 31.078 31.078" style="enable-background:new 0 0 31.078 31.078;"
	 xml:space="preserve">
<g>
	<path d="M30.767,15.028l-5.025-4.455V4.006c0-0.512-0.414-0.926-0.925-0.926h-3.702c-0.511,0-0.925,0.414-0.925,0.926v1.645
		l-4.037-3.578c-0.351-0.311-0.876-0.311-1.228,0L0.311,15.028c-0.288,0.255-0.387,0.662-0.251,1.021
		c0.137,0.36,0.481,0.598,0.865,0.598h4.627v11.645c0,0.418,0.279,0.756,0.657,0.872c0.074,0.043,0.155,0.075,0.247,0.075h9.083
		c0.276,0,0.5-0.225,0.5-0.5s-0.224-0.5-0.5-0.5H7.403v-1h4.136c0.276,0,0.5-0.225,0.5-0.5s-0.224-0.5-0.5-0.5H7.403v-1h4.136
		c0.276,0,0.5-0.225,0.5-0.5s-0.224-0.5-0.5-0.5H7.403v-1h8.136c0.276,0,0.5-0.225,0.5-0.5s-0.224-0.5-0.5-0.5H7.403v-1h4.136
		c0.276,0,0.5-0.225,0.5-0.5s-0.224-0.5-0.5-0.5H7.403v-1h4.136c0.276,0,0.5-0.225,0.5-0.5s-0.224-0.5-0.5-0.5H7.403v-1h8.136
		c0.276,0,0.5-0.225,0.5-0.5s-0.224-0.5-0.5-0.5H7.403v-0.516c0-0.511-0.414-0.925-0.926-0.925H3.364L15.539,4.001L20.5,8.399
		c0.273,0.243,0.66,0.301,0.993,0.152s0.546-0.479,0.546-0.844V4.931h1.852v6.059c0,0.265,0.112,0.517,0.312,0.692l3.511,3.113
		h-3.112c-0.513,0-0.926,0.414-0.926,0.925v12.571c0,0.512,0.413,0.926,0.926,0.926c0.511,0,0.925-0.414,0.925-0.926V16.646h4.626
		c0.384,0,0.729-0.237,0.865-0.598C31.154,15.69,31.054,15.283,30.767,15.028z"/>
</g>
<g>
</g>
<g>
</g>
<g>
</g>
<g>
</g>
<g>
</g>
<g>
</g>
<g>
</g>
<g>
</g>
<g>
</g>
<g>
</g>
<g>
</g>
<g>
</g>
<g>
</g>
<g>
</g>
<g>
</g>
</svg>
