<?xml version="1.0" encoding="iso-8859-1"?>
<!-- Generator: Adobe Illustrator 18.0.0, SVG Export Plug-In . SVG Version: 6.00 Build 0)  -->
<!DOCTYPE svg PUBLIC "-//W3C//DTD SVG 1.1//EN" "http://www.w3.org/Graphics/SVG/1.1/DTD/svg11.dtd">
<svg fill="#000000" version="1.1" id="Capa_1" xmlns="http://www.w3.org/2000/svg" xmlns:xlink="http://www.w3.org/1999/xlink" x="0px" y="0px"
	 viewBox="0 0 312.716 312.716" style="enable-background:new 0 0 312.716 312.716;" xml:space="preserve">
<g>
	<path d="M311.575,171.291l-45.304-72.505c-1.054-1.687-2.735-2.886-4.673-3.333c-1.938-0.448-3.976-0.106-5.662,0.947
		l-37.06,23.158c-3.334-5.42-7.358-10.364-11.939-14.729V15.751c0-4.143-3.357-7.5-7.5-7.5h-85.491c-4.143,0-7.5,3.357-7.5,7.5
		v89.072c-4.667,4.446-8.763,9.491-12.135,15.031L56.78,96.401c-1.688-1.055-3.725-1.396-5.662-0.947
		c-1.938,0.447-3.619,1.646-4.673,3.333L1.141,171.291c-2.195,3.513-1.127,8.14,2.386,10.335l124.181,77.597v19.48
		c0,4.143,3.357,7.5,7.5,7.5h42.966c4.143,0,7.5-3.357,7.5-7.5v-19.896l123.517-77.182
		C312.702,179.431,313.771,174.804,311.575,171.291z M230.805,171.358c1.963,3.141,2.583,6.86,1.745,10.473
		c-0.838,3.616-3.036,6.692-6.191,8.662c-2.225,1.39-4.774,2.125-7.374,2.125c-0.121,0-0.239-0.019-0.36-0.021
		c4.103-6.655,8.064-14.904,9.948-23.972C229.418,169.425,230.169,170.34,230.805,171.358z M121.446,23.251h70.491V93.78
		c-2.065-1.146-4.191-2.196-6.373-3.142c-0.035-15.916-12.975-28.854-28.878-28.854c-15.894,0-28.828,12.936-28.865,28.849
		c-2.182,0.946-4.309,1.995-6.375,3.143V23.251z M169.675,85.838c-4.219-0.763-8.555-1.184-12.988-1.184
		c-4.43,0-8.761,0.42-12.975,1.182c1.972-5.278,7.035-9.052,12.975-9.052C162.632,76.784,167.701,80.559,169.675,85.838z
		 M156.687,99.655c31.999,0,58.032,26.136,58.032,58.261c0,20.856-19.188,40.333-19.375,40.52
		c-7.038,7.013-14.742,19.968-17.538,29.488l-4.289,14.58h-1.819l5.913-46.008h7.729c4.143,0,7.5-3.357,7.5-7.5
		c0-4.143-3.357-7.5-7.5-7.5h-57.293c-4.142,0-7.5,3.357-7.5,7.5c0,4.143,3.358,7.5,7.5,7.5h7.728l5.915,46.008h-1.823
		l-4.285-14.582c-2.809-9.535-10.514-22.487-17.543-29.488c-0.193-0.193-19.378-19.531-19.378-40.518
		C98.66,125.79,124.691,99.655,156.687,99.655z M156.694,241.578l-5.796-45.083h11.59L156.694,241.578z M84.699,168.128
		c1.838,9.255,5.872,17.676,10.046,24.448c-0.336,0.024-0.674,0.041-1.015,0.041c-2.6,0-5.149-0.735-7.376-2.126
		c-3.152-1.969-5.351-5.045-6.188-8.661c-0.838-3.612-0.218-7.332,1.745-10.473C82.683,170.122,83.627,169.04,84.699,168.128z
		 M55.191,113.096l32.654,20.405c-2.02,5.717-3.347,11.757-3.89,18.02c-6.033,2.144-11.247,6.258-14.765,11.887
		c-4.089,6.544-5.381,14.289-3.637,21.81c1.742,7.516,6.308,13.907,12.854,17.995c4.611,2.881,9.909,4.404,15.323,4.404
		c3.692,0,7.255-0.71,10.561-2.004c1.755,2.03,2.957,3.243,3.163,3.448c5.228,5.207,11.647,16.001,13.736,23.093l1.91,6.502
		L17.836,172.88L55.191,113.096z M142.707,271.203v-11.675h27.966v11.675H142.707z M190.435,238.144l1.763-5.99
		c2.08-7.085,8.498-17.875,13.732-23.091c0.2-0.199,1.333-1.345,2.993-3.255c3.163,1.173,6.555,1.81,10.063,1.81
		c5.413,0,10.713-1.523,15.321-4.403c6.548-4.089,11.113-10.48,12.856-17.996c1.744-7.521,0.452-15.266-3.637-21.81
		c-3.385-5.417-8.339-9.433-14.083-11.64c-0.539-6.477-1.909-12.718-4.024-18.61l32.107-20.063l37.354,59.784L190.435,238.144z"/>
	<path d="M171.013,289.465h-28.645c-4.143,0-7.5,3.358-7.5,7.5c0,4.143,3.357,7.5,7.5,7.5h28.645c4.143,0,7.5-3.357,7.5-7.5
		C178.513,292.823,175.155,289.465,171.013,289.465z"/>
</g>
<g>
</g>
<g>
</g>
<g>
</g>
<g>
</g>
<g>
</g>
<g>
</g>
<g>
</g>
<g>
</g>
<g>
</g>
<g>
</g>
<g>
</g>
<g>
</g>
<g>
</g>
<g>
</g>
<g>
</g>
</svg>
