<?xml version="1.0" encoding="iso-8859-1"?>
<!-- Generator: Adobe Illustrator 17.1.0, SVG Export Plug-In . SVG Version: 6.00 Build 0)  -->
<!DOCTYPE svg PUBLIC "-//W3C//DTD SVG 1.1//EN" "http://www.w3.org/Graphics/SVG/1.1/DTD/svg11.dtd">
<svg fill="#000000" version="1.1" id="Capa_1" xmlns="http://www.w3.org/2000/svg" xmlns:xlink="http://www.w3.org/1999/xlink" x="0px" y="0px"
	 viewBox="0 0 266.787 266.787" style="enable-background:new 0 0 266.787 266.787;" xml:space="preserve">
<g>
	<path d="M115.197,149.639c0-12.406-10.093-22.5-22.5-22.5s-22.5,10.094-22.5,22.5s10.093,22.5,22.5,22.5
		S115.197,162.045,115.197,149.639z M85.197,149.639c0-4.136,3.364-7.5,7.5-7.5s7.5,3.364,7.5,7.5s-3.364,7.5-7.5,7.5
		S85.197,153.774,85.197,149.639z"/>
	<path d="M259.004,217.892c4.142,0,7.5-3.357,7.5-7.5V7.5c0-4.143-3.358-7.5-7.5-7.5H133.54h-0.292H47.061
		c-4.142,0-7.5,3.357-7.5,7.5s3.358,7.5,7.5,7.5h78.687v236.787H15.283V7.5c0-4.143-3.358-7.5-7.5-7.5s-7.5,3.357-7.5,7.5v251.787
		c0,4.143,3.358,7.5,7.5,7.5h125.464h0.292h125.464c4.142,0,7.5-3.357,7.5-7.5s-3.358-7.5-7.5-7.5H141.04V15h110.464v195.392
		C251.504,214.534,254.862,217.892,259.004,217.892z"/>
	<path d="M151.59,149.639c0,12.406,10.093,22.5,22.5,22.5s22.5-10.094,22.5-22.5s-10.093-22.5-22.5-22.5
		S151.59,137.232,151.59,149.639z M181.59,149.639c0,4.136-3.364,7.5-7.5,7.5s-7.5-3.364-7.5-7.5s3.364-7.5,7.5-7.5
		S181.59,145.503,181.59,149.639z"/>
</g>
<g>
</g>
<g>
</g>
<g>
</g>
<g>
</g>
<g>
</g>
<g>
</g>
<g>
</g>
<g>
</g>
<g>
</g>
<g>
</g>
<g>
</g>
<g>
</g>
<g>
</g>
<g>
</g>
<g>
</g>
</svg>
