<?xml version="1.0" encoding="iso-8859-1"?>
<!-- Generator: Adobe Illustrator 19.0.0, SVG Export Plug-In . SVG Version: 6.00 Build 0)  -->
<svg fill="#000000" version="1.1" id="Layer_1" xmlns="http://www.w3.org/2000/svg" xmlns:xlink="http://www.w3.org/1999/xlink" x="0px" y="0px"
	 viewBox="0 0 512.042 512.042" style="enable-background:new 0 0 512.042 512.042;" xml:space="preserve">
<g>
	<g>
		<path d="M512.042,384.021c0-0.103-0.007-0.207-0.009-0.31c-0.037-2.633-0.569-5.192-1.521-7.569
			c-0.006-0.015-0.01-0.029-0.016-0.044l-42.667-106.667c-3.24-8.099-11.084-13.41-19.807-13.41h-21.333v-96.776
			c25.5-14.756,42.667-42.308,42.667-73.89c0-47.153-38.181-85.333-85.333-85.333h-256c-47.153,0-85.333,38.181-85.333,85.333
			c0,31.583,17.167,59.135,42.667,73.89v96.776H64.021c-8.723,0-16.568,5.311-19.807,13.41L1.547,376.098
			c-0.006,0.014-0.01,0.029-0.016,0.043c-0.952,2.377-1.485,4.937-1.522,7.57c-0.002,0.103-0.009,0.207-0.009,0.31
			c0,0.103,0.007,0.207,0.009,0.31c0.037,2.633,0.569,5.193,1.521,7.57c0.006,0.014,0.01,0.029,0.016,0.043l42.667,106.667
			c3.24,8.099,11.084,13.41,19.807,13.41h384c8.723,0,16.568-5.311,19.807-13.41l42.667-106.667c0.006-0.015,0.01-0.029,0.016-0.044
			c0.952-2.377,1.484-4.936,1.521-7.569C512.034,384.228,512.041,384.124,512.042,384.021z M128.021,42.688h256
			c23.589,0,42.667,19.078,42.667,42.667c0,23.567-19.099,42.667-42.667,42.667s-42.667-19.099-42.667-42.667h-42.667
			c0,23.567-19.099,42.667-42.667,42.667s-42.667-19.099-42.667-42.667h-42.667c0,23.567-19.099,42.667-42.667,42.667
			s-42.667-19.099-42.667-42.667C85.354,61.766,104.432,42.688,128.021,42.688z M128.021,170.688c25.488,0,48.364-11.172,64-28.887
			c15.636,17.715,38.512,28.887,64,28.887c25.488,0,48.364-11.172,64-28.887c15.636,17.715,38.512,28.887,64,28.887v85.333h-256
			V170.688z M78.464,298.688h355.113l25.6,64H52.864L78.464,298.688z M433.578,469.354H78.464l-25.6-64h406.313L433.578,469.354z"/>
	</g>
</g>
<g>
</g>
<g>
</g>
<g>
</g>
<g>
</g>
<g>
</g>
<g>
</g>
<g>
</g>
<g>
</g>
<g>
</g>
<g>
</g>
<g>
</g>
<g>
</g>
<g>
</g>
<g>
</g>
<g>
</g>
</svg>
