<?xml version="1.0" encoding="iso-8859-1"?>
<!-- Generator: Adobe Illustrator 19.0.0, SVG Export Plug-In . SVG Version: 6.00 Build 0)  -->
<svg fill="#000000" version="1.1" id="Layer_1" xmlns="http://www.w3.org/2000/svg" xmlns:xlink="http://www.w3.org/1999/xlink" x="0px" y="0px"
	 viewBox="0 0 512.001 512.001" style="enable-background:new 0 0 512.001 512.001;" xml:space="preserve">
<g>
	<g>
		<path d="M487.938,349.876l-3.813-3.811c-6.028-6.026-14.345-9.357-22.895-9.131c-8.644,0.227-16.6,3.899-22.401,10.342
			c-11.104,12.329-10.189,31.601,2.082,43.874l4.575,4.577c1.61,1.609,2.426,3.836,2.243,6.108
			c-0.187,2.302-1.352,4.335-3.283,5.726c-2.944,2.118-7.56,1.474-10.503-1.472L269.192,241.336l-5.545,5.546
			c-1.461,1.461-3.407,2.268-5.476,2.268s-4.013-0.806-5.476-2.27L39.99,34.174c-4.424-4.424-10.307-6.861-16.565-6.861
			c-6.257,0-12.14,2.437-16.565,6.861C2.436,38.599,0,44.482,0,50.739c0,6.257,2.436,12.14,6.861,16.565l212.708,212.708
			c3.02,3.019,3.02,7.932,0,10.952l-5.544,5.545l165.34,165.341c14.596,14.595,34.582,22.837,55.179,22.837
			c0.829,0,1.661-0.014,2.492-0.041c21.769-0.704,41.708-10.141,56.142-26.576C520.174,427.335,517.873,379.81,487.938,349.876z
			 M450.482,357.769c2.896-3.215,6.859-5.047,11.159-5.16c4.331-0.094,8.354,1.503,11.397,4.546l3.81,3.81
			c0.558,0.558,1.091,1.131,1.627,1.704l-21.934,21.934l-4.54-4.542C445.735,373.796,445.055,363.796,450.482,357.769z
			 M23.425,61.692l-5.476-5.476c-3.02-3.02-3.02-7.933,0-10.953c3.02-3.02,7.932-3.02,10.951,0l5.476,5.476L23.425,61.692z
			 M45.466,83.732L34.514,72.78l10.951-10.953L56.418,72.78L45.466,83.732z M67.507,105.773L56.555,94.821l10.951-10.953
			l10.953,10.953L67.507,105.773z M89.548,127.814l-10.952-10.952l10.952-10.953l10.953,10.953L89.548,127.814z M111.589,149.855
			l-10.952-10.952l10.952-10.953l10.953,10.953L111.589,149.855z M235.247,295.553c4.129-8.701,2.599-19.44-4.59-26.631
			L122.678,160.944l10.952-10.953L241.609,257.97c4.425,4.424,10.307,6.862,16.565,6.862c3.545,0,6.967-0.782,10.074-2.263
			l11.899,11.899l-32.993,32.993L235.247,295.553z M258.241,318.549l32.993-32.993l10.953,10.951L269.194,329.5L258.241,318.549z
			 M280.282,340.59l32.993-32.993l71.565,71.565l-32.993,32.993L280.282,340.59z M373.889,434.194l-10.953-10.952l32.993-32.992
			l10.952,10.951L373.889,434.194z M481.396,447.722c-11.543,13.142-27.478,20.688-44.868,21.251
			c-17.4,0.573-33.769-5.904-46.075-18.213l-5.476-5.476l32.993-32.993l4.886,4.886c8.368,8.369,21.588,9.707,30.755,3.109
			c5.641-4.062,9.194-10.327,9.748-17.187c0.086-1.062,0.091-2.12,0.033-3.169l24.465-24.465
			C500.89,398.587,499.003,427.676,481.396,447.722z"/>
	</g>
</g>
<g>
</g>
<g>
</g>
<g>
</g>
<g>
</g>
<g>
</g>
<g>
</g>
<g>
</g>
<g>
</g>
<g>
</g>
<g>
</g>
<g>
</g>
<g>
</g>
<g>
</g>
<g>
</g>
<g>
</g>
</svg>
