<?xml version="1.0" encoding="iso-8859-1"?>
<!-- Generator: Adobe Illustrator 19.0.0, SVG Export Plug-In . SVG Version: 6.00 Build 0)  -->
<svg fill="#000000" version="1.1" id="Layer_1" xmlns="http://www.w3.org/2000/svg" xmlns:xlink="http://www.w3.org/1999/xlink" x="0px" y="0px"
	 viewBox="0 0 512 512" style="enable-background:new 0 0 512 512;" xml:space="preserve">
<g>
	<g>
		<path d="M492.43,333.533c-10.974-12.604-25.576-21.403-41.659-25.228v-69.195c0-56.719-24.711-110.461-67.814-147.588
			c-1.153-9.802-6.491-19.041-15.401-24.816c-5.463-3.541-11.159-6.859-16.933-9.861c-3.882-2.017-8.66-0.509-10.677,3.37
			c-2.018,3.88-0.509,8.66,3.37,10.677c5.328,2.771,10.585,5.834,15.628,9.102c8.548,5.54,10.995,17.002,5.454,25.55
			c-5.472,8.444-17.093,10.938-25.55,5.454C314.185,95.013,285.537,86.565,256,86.565c-29.539,0-58.189,8.451-82.849,24.436
			c-8.461,5.484-20.077,2.994-25.551-5.453c-5.541-8.549-3.095-20.011,5.453-25.552C183.712,60.121,219.311,49.617,256,49.617
			c19.334,0,38.429,2.911,56.752,8.654c4.175,1.304,8.616-1.014,9.923-5.188c1.307-4.173-1.016-8.615-5.188-9.923
			c-19.857-6.223-40.545-9.379-61.487-9.379c-39.752,0-78.33,11.386-111.562,32.927c-8.913,5.778-14.253,15.022-15.401,24.828
			c-43.13,37.144-67.808,90.722-67.808,147.572v69.202C25.492,316.763,0,348.669,0,385.847c0,37.648,26.479,70.212,63.146,77.961
			c3.637,8.465,12.054,14.41,21.835,14.41h14.779c13.097,0,23.753-10.656,23.753-23.753v-78.12c0-4.374-3.544-7.918-7.918-7.918
			s-7.918,3.544-7.918,7.918v78.12c0,4.366-3.551,7.918-7.918,7.918H84.981c-4.366,0-7.918-3.551-7.918-7.918V309.311h22.697
			c4.366,0,7.918,3.551,7.918,7.918v16.891c0,4.374,3.544,7.917,7.918,7.917s7.918-3.544,7.918-7.917v-16.891
			c0-9.922-6.119-18.439-14.779-21.987v-56.132c0-41.876,17.892-81.724,49.153-109.711c8.289,1.266,16.835-0.546,23.876-5.109
			C203.854,109.969,229.525,102.4,256,102.4c26.474,0,52.144,7.568,74.233,21.885c7.039,4.564,15.594,6.408,23.886,5.119
			c31.258,27.987,49.148,67.831,49.148,109.705v56.132c-8.661,3.548-14.779,12.064-14.779,21.987v137.237
			c0,13.097,10.656,23.753,23.753,23.753h14.779c9.782,0,18.2-5.945,21.836-14.411C485.522,456.059,512,423.5,512,385.847
			C512,366.607,505.049,348.028,492.43,333.533z M61.229,446.994c-26.648-8.025-45.394-32.784-45.394-61.147
			c0-28.509,18.7-53.143,45.394-61.149V446.994z M92.899,239.109v54.367H77.064v-54.367c0-48.933,19.912-95.234,55.025-128.952
			c2.294,4.846,5.702,9.107,9.929,12.407C110.691,153.208,92.899,195.148,92.899,239.109z M434.936,454.466
			c0,4.366-3.551,7.918-7.918,7.918h-14.779c-4.366,0-7.918-3.551-7.918-7.918V317.229c0-4.366,3.551-7.918,7.918-7.918h22.697
			V454.466z M434.936,293.476h-15.835v-54.367c0-43.959-17.79-85.897-49.113-116.54c4.226-3.298,7.629-7.578,9.921-12.421
			c35.091,33.721,55.027,80.143,55.027,128.961V293.476z M450.771,446.994V324.709c26.426,8.021,45.394,32.84,45.394,61.138
			C496.165,414.212,477.42,438.969,450.771,446.994z"/>
	</g>
</g>
<g>
	<g>
		<path d="M261.309,201.55c-2.284-1.456-5.152-1.642-7.602-0.496l-61.747,28.816h-36.249c-4.374,0-7.918,3.544-7.918,7.918v50.672
			c0,4.374,3.544,7.918,7.918,7.918h36.249l61.747,28.816c5.168,2.416,11.266-1.496,11.266-7.174v-109.79
			C264.973,205.522,263.59,203.003,261.309,201.55z M185.798,280.541h-22.169v-34.837h22.169V280.541z M249.138,305.586
			l-47.505-22.169v-40.587l47.505-22.169V305.586z"/>
	</g>
</g>
<g>
	<g>
		<path d="M293.26,232.092c-3.099-3.089-8.112-3.079-11.196,0.02c-3.087,3.097-3.078,8.111,0.02,11.196
			c5.305,5.287,8.227,12.324,8.227,19.815c0,7.491-2.922,14.528-8.228,19.816c-2.888,2.878-3.088,7.639-0.439,10.741
			c2.955,3.463,8.391,3.69,11.617,0.475c8.309-8.281,12.885-19.301,12.885-31.032C306.145,251.392,301.568,240.371,293.26,232.092z"
			/>
	</g>
</g>
<g>
	<g>
		<path d="M302.656,197.02c-3.626-2.448-8.547-1.494-10.992,2.132c-2.447,3.624-1.493,8.546,2.132,10.992
			c17.649,11.914,28.184,31.72,28.184,52.98c0,15.133-5.387,29.809-15.168,41.324c-2.57,3.026-2.465,7.64,0.253,10.537
			c3.192,3.401,8.796,3.268,11.815-0.285c12.21-14.374,18.936-32.691,18.936-51.575C337.817,236.594,324.673,211.881,302.656,197.02
			z"/>
	</g>
</g>
<g>
	<g>
		<path d="M326.301,175.058c-3.455-2.68-8.43-2.051-11.108,1.405c-2.679,3.455-2.05,8.428,1.405,11.108
			c23.549,18.258,37.054,45.796,37.054,75.551c0,22.912-8.233,45.069-23.182,62.39c-2.593,3.004-2.525,7.621,0.171,10.539
			c3.165,3.427,8.771,3.337,11.817-0.193c17.431-20.195,27.029-46.027,27.029-72.736
			C369.487,228.435,353.747,196.337,326.301,175.058z"/>
	</g>
</g>
<g>
</g>
<g>
</g>
<g>
</g>
<g>
</g>
<g>
</g>
<g>
</g>
<g>
</g>
<g>
</g>
<g>
</g>
<g>
</g>
<g>
</g>
<g>
</g>
<g>
</g>
<g>
</g>
<g>
</g>
</svg>
