<?xml version="1.0" encoding="iso-8859-1"?>
<!-- Generator: Adobe Illustrator 19.0.0, SVG Export Plug-In . SVG Version: 6.00 Build 0)  -->
<svg fill="#000000" version="1.1" id="Capa_1" xmlns="http://www.w3.org/2000/svg" xmlns:xlink="http://www.w3.org/1999/xlink" x="0px" y="0px"
	 viewBox="0 0 469.985 469.985" style="enable-background:new 0 0 469.985 469.985;" xml:space="preserve">
<g>
	<path d="M207.493,62.5c0-4.142-3.357-7.5-7.5-7.5h-9.366h-10.634c-4.143,0-7.5,3.358-7.5,7.5s3.357,7.5,7.5,7.5h10.634h9.366
		C204.135,70,207.493,66.642,207.493,62.5z"/>
	<path d="M262.493,62.5c0,4.142,3.357,7.5,7.5,7.5h9.366h10.634c4.143,0,7.5-3.358,7.5-7.5s-3.357-7.5-7.5-7.5h-10.634h-9.366
		C265.85,55,262.493,58.358,262.493,62.5z"/>
	<path d="M215.546,81.945c-2.928-2.93-7.677-2.929-10.606,0l-6.619,6.619l-7.523,7.523c-2.929,2.929-2.929,7.678,0.001,10.606
		c1.464,1.465,3.384,2.197,5.303,2.197s3.839-0.732,5.304-2.197l7.522-7.523l6.619-6.62
		C218.476,89.623,218.476,84.874,215.546,81.945z"/>
	<path d="M254.439,43.054c1.464,1.465,3.384,2.197,5.303,2.197s3.839-0.732,5.304-2.197l6.619-6.619l7.523-7.523
		c2.929-2.929,2.929-7.678-0.001-10.606c-2.928-2.93-7.677-2.929-10.606,0l-7.522,7.523l-6.619,6.619
		C251.509,35.377,251.509,40.125,254.439,43.054z"/>
	<path d="M210.244,45.251c1.919,0,3.839-0.732,5.303-2.197c2.93-2.929,2.93-7.677,0.001-10.606l-6.619-6.619l-7.522-7.523
		c-2.929-2.929-7.678-2.929-10.606,0c-2.93,2.929-2.93,7.677-0.001,10.606l7.523,7.523l6.619,6.619
		C206.405,44.519,208.324,45.251,210.244,45.251z"/>
	<path d="M254.439,81.945c-2.93,2.929-2.93,7.677-0.001,10.606l6.619,6.62l7.522,7.523c1.465,1.465,3.384,2.197,5.304,2.197
		c1.919,0,3.839-0.732,5.303-2.197c2.93-2.929,2.93-7.677,0.001-10.606l-7.523-7.523l-6.619-6.619
		C262.117,79.017,257.368,79.016,254.439,81.945z"/>
	<path d="M234.993,35c4.143,0,7.5-3.358,7.5-7.5v-9.366V7.5c0-4.142-3.357-7.5-7.5-7.5s-7.5,3.358-7.5,7.5v10.634V27.5
		C227.493,31.642,230.85,35,234.993,35z"/>
	<path d="M377.769,412.594l-49.911-120.495c-0.006-0.015-77.57-187.27-77.57-187.27l-8.367-20.199
		c-1.16-2.803-3.896-4.63-6.929-4.63s-5.769,1.827-6.929,4.63l-8.367,20.199l-77.564,187.255
		c-0.006,0.015-49.917,120.51-49.917,120.51c-1.285,3.102-0.353,6.679,2.283,8.758c39.753,31.361,89.647,48.633,140.493,48.633
		s100.74-17.271,140.493-48.633C378.122,419.273,379.054,415.696,377.769,412.594z M234.993,454.985
		c-45.594,0-90.367-14.867-126.716-41.968l18.761-45.292c11.604,6.269,23.787,11.552,36.341,15.711
		c0.783,0.26,1.578,0.383,2.36,0.383c3.146,0,6.075-1.994,7.118-5.143c0.014-0.041,0.021-0.082,0.034-0.123
		c0.051-0.162,0.095-0.324,0.135-0.487c0.904-3.751-1.2-7.632-4.928-8.867c-12.213-4.047-24.053-9.223-35.291-15.401l20.316-49.046
		c26.222,10.104,54.044,15.171,81.87,15.171c27.826,0,55.648-5.067,81.871-15.171l20.315,49.045
		c-42.702,23.493-92.412,31.552-140.73,22.671c-3.856-0.709-7.574,1.681-8.586,5.405c-0.044,0.161-0.082,0.324-0.116,0.489
		c-0.009,0.043-0.022,0.083-0.03,0.126c-0.749,4.074,1.946,7.983,6.021,8.732c13.726,2.523,27.55,3.769,41.319,3.769
		c37.567,0,74.674-9.29,107.897-27.25l18.755,45.278C325.36,440.118,280.586,454.985,234.993,454.985z M180.605,238.402
		c12.733,3.125,25.779,5.165,38.879,6.057c0.173,0.012,0.345,0.018,0.517,0.018c3.91,0,7.205-3.032,7.475-6.991
		c0.003-0.043,0-0.084,0.002-0.127c0.209-4.079-2.886-7.587-6.976-7.865c-11.473-0.78-22.899-2.512-34.082-5.129l23.116-55.807
		c8.459,0.949,16.956,1.432,25.457,1.432c8.497,0,16.997-0.483,25.457-1.432l23.116,55.807c-11.183,2.617-22.609,4.349-34.082,5.129
		c-4.09,0.278-7.185,3.787-6.976,7.865c0.002,0.042-0.001,0.084,0.002,0.127c0.27,3.959,3.564,6.991,7.475,6.991
		c0.171,0,0.344-0.006,0.517-0.018c13.1-0.892,26.146-2.932,38.879-6.057l21.741,52.486c-48.784,18.7-103.473,18.7-152.257,0
		L180.605,238.402z M215.527,154.092l19.465-46.994l19.465,46.993C241.507,155.278,228.477,155.278,215.527,154.092z"/>
</g>
<g>
</g>
<g>
</g>
<g>
</g>
<g>
</g>
<g>
</g>
<g>
</g>
<g>
</g>
<g>
</g>
<g>
</g>
<g>
</g>
<g>
</g>
<g>
</g>
<g>
</g>
<g>
</g>
<g>
</g>
</svg>
