<?xml version="1.0" encoding="iso-8859-1"?>
<!-- Generator: Adobe Illustrator 19.0.0, SVG Export Plug-In . SVG Version: 6.00 Build 0)  -->
<svg fill="#000000" version="1.1" id="Layer_1" xmlns="http://www.w3.org/2000/svg" xmlns:xlink="http://www.w3.org/1999/xlink" x="0px" y="0px"
	 viewBox="0 0 181.857 181.857" style="enable-background:new 0 0 181.857 181.857;" xml:space="preserve">
<g>
	<g>
		<g>
			<path d="M146.069,57.089c-1.881-25.887-24.296-46.39-51.576-46.39c-21.646,0-40.714,12.797-48.323,32.12
				c-0.529-0.017-1.062-0.028-1.598-0.028C19.995,42.791,0,62.786,0,87.363c0,24.577,19.995,44.573,44.573,44.573
				c0.467,0,0.93-0.007,1.389-0.021c0.129,0.014,0.261,0.021,0.394,0.021h99.843c0.258,0,0.512-0.028,0.759-0.083
				c19.619-1.313,34.899-17.61,34.899-37.358C181.856,74.406,165.95,57.959,146.069,57.089z M146,124.763
				c-0.126,0.007-0.251,0.021-0.376,0.042H46.888c-0.216-0.031-0.446-0.056-0.669-0.035c-0.547,0.021-1.093,0.035-1.647,0.035
				c-20.646,0-37.441-16.795-37.441-37.441s16.795-37.441,37.441-37.441c1.247,0,2.479,0.059,3.695,0.178
				c1.678,0.15,3.207-0.846,3.729-2.43c5.896-17.847,22.976-29.839,42.497-29.839c24.578,0,44.573,19.194,44.573,42.835
				c0,0.978,0.4,1.915,1.111,2.587c0.71,0.672,1.651,1.01,2.643,0.975c0.53-0.028,1.059-0.042,1.595-0.042
				c16.711,0,30.309,13.598,30.309,30.309C174.725,110.642,162.108,123.937,146,124.763z"/>
			<path d="M60.314,158.678l6.393-6.393c1.392-1.392,1.392-3.648-0.001-5.041s-3.649-1.393-5.042,0l-6.393,6.393l-6.393-6.393
				c-1.393-1.393-3.649-1.393-5.042,0s-1.393,3.649,0,5.042l6.393,6.393l-6.393,6.393c-1.393,1.393-1.393,3.649,0,5.042
				c0.697,0.696,1.609,1.044,2.522,1.044c0.912,0,1.825-0.348,2.521-1.045l6.393-6.393l6.393,6.393
				c0.696,0.696,1.609,1.045,2.521,1.045c0.912,0,1.825-0.348,2.521-1.045c1.393-1.393,1.393-3.649,0-5.042L60.314,158.678z"/>
			<path d="M95.972,158.678l6.393-6.393c1.392-1.392,1.392-3.648-0.001-5.041s-3.649-1.393-5.042,0l-6.393,6.393l-6.393-6.393
				c-1.393-1.393-3.649-1.393-5.042,0s-1.393,3.649,0,5.042l6.393,6.393l-6.393,6.393c-1.393,1.393-1.393,3.649,0,5.042
				c0.697,0.696,1.609,1.044,2.522,1.044c0.912,0,1.825-0.348,2.521-1.045l6.393-6.393l6.393,6.393
				c0.696,0.696,1.609,1.045,2.521,1.045s1.825-0.348,2.521-1.045c1.393-1.393,1.393-3.649,0-5.042L95.972,158.678z"/>
			<path d="M131.63,158.678l6.393-6.393c1.392-1.392,1.392-3.648-0.001-5.041c-1.393-1.393-3.649-1.393-5.042,0l-6.393,6.393
				l-6.393-6.393c-1.393-1.393-3.649-1.393-5.042,0s-1.393,3.649,0,5.042l6.393,6.393l-6.393,6.393
				c-1.393,1.393-1.393,3.649,0,5.042c0.697,0.696,1.609,1.044,2.522,1.044c0.912,0,1.825-0.348,2.521-1.045l6.393-6.393
				l6.393,6.393c0.696,0.696,1.609,1.045,2.521,1.045c0.913,0,1.825-0.348,2.521-1.045c1.393-1.393,1.393-3.649,0-5.042
				L131.63,158.678z"/>
		</g>
	</g>
</g>
<g>
</g>
<g>
</g>
<g>
</g>
<g>
</g>
<g>
</g>
<g>
</g>
<g>
</g>
<g>
</g>
<g>
</g>
<g>
</g>
<g>
</g>
<g>
</g>
<g>
</g>
<g>
</g>
<g>
</g>
</svg>
