<?xml version="1.0" encoding="iso-8859-1"?>
<!-- Generator: Adobe Illustrator 19.0.0, SVG Export Plug-In . SVG Version: 6.00 Build 0)  -->
<svg fill="#000000" version="1.1" id="Capa_1" xmlns="http://www.w3.org/2000/svg" xmlns:xlink="http://www.w3.org/1999/xlink" x="0px" y="0px"
	 viewBox="0 0 231.578 231.578" style="enable-background:new 0 0 231.578 231.578;" xml:space="preserve">
<g>
	<path d="M121.27,39.897c-41.847,0-75.892,34.045-75.892,75.892s34.045,75.892,75.892,75.892c41.848,0,75.893-34.045,75.893-75.892
		S163.117,39.897,121.27,39.897z M121.27,151.681c-19.823,0-35.892-16.069-35.892-35.892s16.069-35.892,35.892-35.892
		s35.892,16.069,35.892,35.892S141.092,151.681,121.27,151.681z"/>
	<path d="M46,77.171c0.105-0.445,0-0.906,0-1.382v-25c0-3.313-2.687-6-6-6s-6,2.687-6,6V68.78l-5,0.002V50.789c0-3.313-2.687-6-6-6
		s-6,2.687-6,6v17.998l-5,0.002v-18c0-3.313-2.687-6-6-6s-6,2.687-6,6v25c0,0.202,0.177,0.401,0.197,0.597
		c-0.019,0.276,0.053,0.551,0.053,0.822c0,6.494,5.289,11.581,11.935,11.581H14v86.5c0,5.238,4.262,9.5,9.5,9.5s9.5-4.262,9.5-9.5
		v-86.5h1.317c6.646,0,11.767-5.087,11.767-11.581C46.085,77.196,46,77.183,46,77.171z"/>
	<path d="M231.5,112.895l0.077-0.25c-0.008-0.151-0.727-15.27-1.786-30.424c-2.296-32.845-3.484-33.749-5.679-35.392l-1.608-1.21
		l-2.166,0.254C216.82,46.319,207,49.568,207,56.091v55.198v2.015v61.985c0,5.238,4.262,9.5,9.5,9.5s9.5-4.262,9.5-9.5v-55.192
		C229,118.527,231.5,116.194,231.5,112.895z"/>
</g>
<g>
</g>
<g>
</g>
<g>
</g>
<g>
</g>
<g>
</g>
<g>
</g>
<g>
</g>
<g>
</g>
<g>
</g>
<g>
</g>
<g>
</g>
<g>
</g>
<g>
</g>
<g>
</g>
<g>
</g>
</svg>
