<?xml version="1.0" encoding="iso-8859-1"?>
<!-- Generator: Adobe Illustrator 19.0.0, SVG Export Plug-In . SVG Version: 6.00 Build 0)  -->
<svg fill="#000000" version="1.1" id="Layer_1" xmlns="http://www.w3.org/2000/svg" xmlns:xlink="http://www.w3.org/1999/xlink" x="0px" y="0px"
	 viewBox="0 0 512 512" style="enable-background:new 0 0 512 512;" xml:space="preserve">
<g>
	<g>
		<path d="M186.046,376.563c25.891-15.748,43.22-44.233,43.22-76.688c0-49.455-40.235-89.69-89.69-89.69
			c-49.455,0-89.69,40.235-89.69,89.69c0,32.456,17.328,60.94,43.22,76.688c-39.476,13.724-67.89,51.299-67.89,95.39v29.848
			c0,5.632,4.566,10.199,10.199,10.199h208.322c5.633,0,10.199-4.567,10.199-10.199v-29.848
			C253.936,427.862,225.523,390.287,186.046,376.563z M70.284,299.875c0-38.207,31.084-69.291,69.291-69.291
			c38.207,0,69.291,31.085,69.291,69.291c0,38.206-31.084,69.291-69.291,69.291S70.284,338.082,70.284,299.875z M45.614,491.602
			v-19.649c0-44.422,36.14-80.56,80.56-80.56h26.801c44.422,0,80.56,36.14,80.56,80.56v19.649H45.614z"/>
	</g>
</g>
<g>
	<g>
		<path d="M196.007,291.423c-0.829-5.572-6.018-9.428-11.587-8.59c-5.572,0.828-9.417,6.016-8.59,11.587
			c0.266,1.792,0.401,3.627,0.401,5.455c0,5.632,4.566,10.199,10.199,10.199c5.633,0,10.199-4.567,10.199-10.199
			C196.629,297.048,196.419,294.203,196.007,291.423z"/>
	</g>
</g>
<g>
	<g>
		<path d="M182.648,320.97c-4.414-3.498-10.83-2.758-14.329,1.655c-7.007,8.836-17.483,13.904-28.742,13.904
			c-5.633,0-10.199,4.567-10.199,10.199c0,5.632,4.566,10.199,10.199,10.199c17.524,0,33.827-7.883,44.726-21.628
			C187.803,330.886,187.061,324.47,182.648,320.97z"/>
	</g>
</g>
<g>
	<g>
		<path d="M357.26,0c-71.419,0-129.523,58.104-129.523,129.522c0,35.186,13.868,68.102,39.049,92.686
			c0.413,0.403,1.263,1.229,2.18,2.12l-6.161,72.92c-0.307,3.634,1.35,7.157,4.347,9.237c1.738,1.207,3.772,1.821,5.818,1.821
			c1.482,0,2.971-0.322,4.356-0.978c0.501-0.236,50.638-23.97,96.913-49.558c4.425-2.446,8.803-4.832,13.114-7.182
			c26.086-14.216,50.725-27.644,68.8-45.555c20.898-20.709,30.631-44.704,30.631-75.512C486.783,58.104,428.679,0,357.26,0z
			 M377.591,232.677c-4.348,2.369-8.762,4.775-13.224,7.243c-29.84,16.499-61.332,32.232-79.73,41.227l5.062-59.911
			c0.257-3.045-0.865-6.047-3.058-8.176c-0.001-0.001-4.468-4.34-5.604-5.448c-21.216-20.714-32.901-48.446-32.901-78.09
			c0-60.172,48.953-109.124,109.124-109.124s109.124,48.952,109.124,109.123C466.385,184.287,429.139,204.586,377.591,232.677z"/>
	</g>
</g>
<g>
	<g>
		<path d="M361.124,112.031V83.363c10.913,0.815,14.659,6.027,19.22,6.027c6.027,0,8.633-7.493,8.633-11.24
			c0-9.448-17.265-12.542-27.853-12.867v-4.235c0-2.117-2.769-4.072-5.538-4.072c-3.094,0-5.538,1.954-5.538,4.072v4.561
			c-16.288,2.117-31.598,11.075-31.598,31.762c0,20.848,16.777,27.2,31.598,32.739v32.412c-14.334-1.629-19.22-12.217-25.409-12.217
			c-5.05,0-9.121,6.842-9.121,11.403c0,9.12,14.821,19.708,34.53,20.196v4.561c0,2.117,2.444,4.073,5.538,4.073
			c2.769,0,5.538-1.955,5.538-4.073v-5.049c18.242-2.932,30.784-14.496,30.784-34.53
			C391.908,124.735,375.621,117.405,361.124,112.031z M351.351,108.447c-7.492-2.932-13.031-6.027-13.031-13.194
			c0-6.189,4.886-10.098,13.031-11.402V108.447z M359.821,162.36v-28.342c7.004,3.094,12.216,7.004,12.216,14.985
			C372.037,156.66,366.987,160.894,359.821,162.36z"/>
	</g>
</g>
<g>
</g>
<g>
</g>
<g>
</g>
<g>
</g>
<g>
</g>
<g>
</g>
<g>
</g>
<g>
</g>
<g>
</g>
<g>
</g>
<g>
</g>
<g>
</g>
<g>
</g>
<g>
</g>
<g>
</g>
</svg>
