<?xml version="1.0" encoding="iso-8859-1"?>
<!-- Generator: Adobe Illustrator 19.0.0, SVG Export Plug-In . SVG Version: 6.00 Build 0)  -->
<svg fill="#000000" version="1.1" id="Layer_1" xmlns="http://www.w3.org/2000/svg" xmlns:xlink="http://www.w3.org/1999/xlink" x="0px" y="0px"
	 viewBox="0 0 512 512" style="enable-background:new 0 0 512 512;" xml:space="preserve">
<g>
	<g>
		<g>
			<path d="M493.887,214.24h-70.475l-56.488-107.654c-3.129-5.963-9.307-9.697-16.04-9.697H85.162
				c-8.57,0-15.966,6.005-17.727,14.392L45.825,214.24H18.113C8.11,214.24,0,222.35,0,232.353c0,12.404,0,104.99,0,117.44v0.006
				c0,10.003,8.11,18.113,18.113,18.113c54.579,0,69.034-0.006,70.204-0.006c18.141,62.906,107.666,62.972,125.826,0h64.411
				c18.14,62.901,107.655,62.975,125.813,0h89.519c10.003,0,18.113-8.11,18.113-18.113c0-12.432,0-104.898,0-117.341v-0.099
				C512,222.35,503.89,214.24,493.887,214.24z M254.626,133.116h85.308l42.567,81.124H254.626V133.116z M99.869,133.115h118.53
				v81.124H82.841L99.869,133.115z M58.725,331.68H36.226v-22.493h22.499V331.68z M151.231,379.047
				c-16.13,0-29.255-13.124-29.255-29.254c0-16.124,13.124-29.243,29.255-29.243c16.132,0,29.255,13.119,29.255,29.243
				C180.486,365.924,167.362,379.047,151.231,379.047z M341.467,379.047c-16.13,0-29.255-13.124-29.255-29.254
				c0-16.124,13.124-29.243,29.255-29.243c16.124,0,29.242,13.119,29.242,29.243C370.709,365.924,357.591,379.047,341.467,379.047z
				 M475.774,331.679h-71.387v0.001c-18.311-63.528-107.962-62.098-125.852,0h-64.372c-15.908-55.219-89.995-64.315-119.211-15.303
				v-25.304c0-10.003-8.11-18.113-18.113-18.113H36.226v-22.494c0.001,0,380.82,0,380.822,0v40.711
				c0,10.003,8.11,18.113,18.113,18.113h40.612V331.679z M475.774,273.064h-22.499v-22.499h22.499V273.064z"/>
			<path d="M267.672,272.959h-23.346c-10.003,0-18.113,8.11-18.113,18.113c0,10.003,8.11,18.113,18.113,18.113h23.346
				c10.003,0,18.113-8.11,18.113-18.113C285.785,281.069,277.677,272.959,267.672,272.959z"/>
		</g>
	</g>
</g>
<g>
</g>
<g>
</g>
<g>
</g>
<g>
</g>
<g>
</g>
<g>
</g>
<g>
</g>
<g>
</g>
<g>
</g>
<g>
</g>
<g>
</g>
<g>
</g>
<g>
</g>
<g>
</g>
<g>
</g>
</svg>
