<?xml version="1.0" encoding="iso-8859-1"?>
<!-- Generator: Adobe Illustrator 19.0.0, SVG Export Plug-In . SVG Version: 6.00 Build 0)  -->
<svg fill="#000000" version="1.1" id="Layer_1" xmlns="http://www.w3.org/2000/svg" xmlns:xlink="http://www.w3.org/1999/xlink" x="0px" y="0px"
	 viewBox="0 0 512 512" style="enable-background:new 0 0 512 512;" xml:space="preserve">
<g>
	<g>
		<path d="M482.564,322.747h-22.93v-30.411c0-5.632-4.567-10.199-10.199-10.199s-10.199,4.567-10.199,10.199v30.411h-82.475V205.608
			h22.048c16.026,0,29.064-13.038,29.064-29.064s-13.039-29.065-29.065-29.065H139.605c-16.026,0-29.064,13.039-29.064,29.065
			s13.038,29.064,29.064,29.064h22.048v117.139H79.177v-30.411c0-5.632-4.567-10.199-10.199-10.199
			c-5.632,0-10.199,4.567-10.199,10.199v30.411H29.436C13.205,322.746,0,335.952,0,352.183c0,14.577,10.652,26.705,24.58,29.028
			v63.949c0,5.632,4.567,10.199,10.199,10.199h442.441c5.632,0,10.199-4.567,10.199-10.199v-63.949
			c13.928-2.323,24.58-14.452,24.58-29.028C512,335.952,498.795,322.747,482.564,322.747z M139.605,185.21
			c-4.778,0-8.665-3.888-8.665-8.665c0-4.779,3.888-8.666,8.665-8.666h239.203c4.778,0,8.665,3.888,8.665,8.666
			s-3.888,8.665-8.665,8.665H139.605z M262.412,282.137c-5.632,0-10.199,4.567-10.199,10.199v30.411h-70.162V205.608h154.311
			v117.139h-63.75v-30.411C272.611,286.704,268.044,282.137,262.412,282.137z M467.022,434.96H44.979v-53.342h422.043V434.96z
			 M482.563,361.22H29.436c-4.983,0-9.037-4.054-9.037-9.036c0-4.982,4.055-9.037,9.037-9.037h453.127
			c4.983,0,9.038,4.055,9.038,9.037C491.601,357.165,487.545,361.22,482.563,361.22z"/>
	</g>
</g>
<g>
	<g>
		<path d="M126.154,56.641c-37.151,0-67.375,30.224-67.375,67.375c0,5.632,4.566,10.199,10.199,10.199
			c5.632,0,10.199-4.567,10.199-10.199c0-25.902,21.074-46.977,46.977-46.977c25.903,0,46.977,21.074,46.977,46.977
			c0,5.632,4.567,10.199,10.199,10.199s10.199-4.567,10.199-10.199C193.529,86.865,163.305,56.641,126.154,56.641z"/>
	</g>
</g>
<g>
	<g>
		<path d="M68.978,148.014c-5.632,0-10.199,4.567-10.199,10.199v90.305c0,5.633,4.566,10.199,10.199,10.199
			c5.632,0,10.199-4.567,10.199-10.199v-90.305C79.177,152.582,74.61,148.014,68.978,148.014z"/>
	</g>
</g>
<g>
	<g>
		<path d="M262.412,221.22c-5.632,0-10.199,4.567-10.199,10.199v26.717c0,5.633,4.567,10.2,10.199,10.2
			c5.632,0,10.199-4.567,10.199-10.199v-26.718C272.611,225.787,268.044,221.22,262.412,221.22z"/>
	</g>
</g>
<g>
	<g>
		<path d="M262.412,57.71c-5.632,0-10.199,4.567-10.199,10.199v56.64c0,5.633,4.567,10.199,10.199,10.199
			c5.632,0,10.199-4.567,10.199-10.199v-56.64C272.611,62.277,268.044,57.71,262.412,57.71z"/>
	</g>
</g>
<g>
	<g>
		<path d="M392.259,56.641c-37.151,0-67.375,30.224-67.375,67.375c0,5.632,4.567,10.199,10.199,10.199s10.199-4.567,10.199-10.199
			c0-25.902,21.074-46.977,46.977-46.977c25.903,0,46.977,21.074,46.977,46.977c0,5.632,4.567,10.199,10.199,10.199
			c5.632,0,10.199-4.567,10.199-10.199C459.634,86.865,429.41,56.641,392.259,56.641z"/>
	</g>
</g>
<g>
	<g>
		<path d="M449.434,148.014c-5.632,0-10.199,4.567-10.199,10.199v90.305c0,5.632,4.567,10.199,10.199,10.199
			s10.199-4.567,10.199-10.199v-90.305C459.633,152.582,455.067,148.014,449.434,148.014z"/>
	</g>
</g>
<g>
</g>
<g>
</g>
<g>
</g>
<g>
</g>
<g>
</g>
<g>
</g>
<g>
</g>
<g>
</g>
<g>
</g>
<g>
</g>
<g>
</g>
<g>
</g>
<g>
</g>
<g>
</g>
<g>
</g>
</svg>
