<?xml version="1.0" encoding="iso-8859-1"?>
<!-- Generator: Adobe Illustrator 19.0.0, SVG Export Plug-In . SVG Version: 6.00 Build 0)  -->
<svg fill="#000000" version="1.1" id="Layer_1" xmlns="http://www.w3.org/2000/svg" xmlns:xlink="http://www.w3.org/1999/xlink" x="0px" y="0px"
	 viewBox="0 0 512 512" style="enable-background:new 0 0 512 512;" xml:space="preserve">
<g>
	<g>
		<g>
			<path d="M296.073,283.28c-15.444,0-29.932-5.648-41.069-15.625c-11.137,9.977-25.62,15.625-41.069,15.625
				c-15.36,0-29.795-5.604-40.918-15.497c-8.3,7.383-18.441,12.368-29.436,14.43l18.042,68.517h188.753l17.967-68.238
				c-11.726-1.815-22.584-6.901-31.357-14.705C325.863,277.676,311.428,283.28,296.073,283.28z"/>
			<path d="M256,0C114.623,0,0,114.614,0,256c0,141.377,114.623,256,256,256c141.386,0,256-114.623,256-256
				C512,114.61,397.386,0,256,0z M370.849,377.285H141.151L94.093,198.553l25.682-6.759l17.011,64.609
				c10.243-1.363,19.37-7.14,25.005-16.05c2.435-3.847,6.671-6.179,11.221-6.179c4.555,0,8.791,2.333,11.226,6.179
				c6.485,10.252,17.591,16.373,29.697,16.373c12.19,0,23.332-6.188,29.799-16.551c2.426-3.882,6.684-6.246,11.261-6.246
				s8.84,2.359,11.265,6.246c6.471,10.367,17.613,16.555,29.803,16.555c12.102,0,23.208-6.122,29.697-16.373
				c2.439-3.847,6.671-6.179,11.221-6.179c0,0,0,0,0.004,0c4.55,0,8.787,2.333,11.217,6.179c5.993,9.473,15.94,15.351,26.966,16.196
				l17.051-64.755l25.687,6.759L370.849,377.285z"/>
		</g>
	</g>
</g>
<g>
</g>
<g>
</g>
<g>
</g>
<g>
</g>
<g>
</g>
<g>
</g>
<g>
</g>
<g>
</g>
<g>
</g>
<g>
</g>
<g>
</g>
<g>
</g>
<g>
</g>
<g>
</g>
<g>
</g>
</svg>
