<?xml version="1.0" encoding="iso-8859-1"?>
<!-- Generator: Adobe Illustrator 19.0.0, SVG Export Plug-In . SVG Version: 6.00 Build 0)  -->
<svg fill="#000000" version="1.1" id="Layer_1" xmlns="http://www.w3.org/2000/svg" xmlns:xlink="http://www.w3.org/1999/xlink" x="0px" y="0px"
	 viewBox="0 0 512 512" style="enable-background:new 0 0 512 512;" xml:space="preserve">
<g>
	<g>
		<path d="M130.907,271.73h-23.482v-70.25c0-5.48-4.441-9.922-9.922-9.922c-5.481,0-9.922,4.443-9.922,9.922v80.172
			c0,5.48,4.441,9.922,9.922,9.922h33.404c5.481,0,9.922-4.443,9.922-9.922C140.829,276.173,136.388,271.73,130.907,271.73z"/>
	</g>
</g>
<g>
	<g>
		<path d="M170.575,191.559c-18.134,0-32.887,14.754-32.887,32.888v34.239c-0.001,18.134,14.753,32.888,32.887,32.888
			s32.888-14.754,32.888-32.888v-34.239C203.464,206.312,188.71,191.559,170.575,191.559z M183.617,258.686
			c0,7.192-5.852,13.043-13.043,13.043c-7.192,0-13.042-5.852-13.042-13.043v-34.239c0-7.193,5.852-13.043,13.042-13.043
			c7.193,0,13.043,5.852,13.043,13.043V258.686z"/>
	</g>
</g>
<g>
	<g>
		<path d="M255.366,306.806c-18.134,0-32.887,14.754-32.887,32.888v34.239c0,18.134,14.753,32.888,32.887,32.888
			s32.888-14.754,32.888-32.888v-34.239C288.255,321.558,273.501,306.806,255.366,306.806z M268.41,373.933
			c0,7.192-5.852,13.043-13.043,13.043s-13.042-5.852-13.042-13.043v-34.239c0-7.193,5.852-13.043,13.042-13.043
			c7.193,0,13.043,5.852,13.043,13.043V373.933z"/>
	</g>
</g>
<g>
	<g>
		<path d="M269.098,232.048c2.286-3.966,3.614-8.551,3.614-13.447c0.001-14.913-12.131-27.043-27.042-27.043H226.88
			c-5.481,0-9.922,4.443-9.922,9.922v80.172c0,5.48,4.441,9.922,9.922,9.922h22.966c18.134,0,32.887-14.754,32.887-32.888
			C282.732,247.739,277.351,238.03,269.098,232.048z M236.802,211.403h8.868c3.969,0,7.197,3.228,7.197,7.197
			s-3.228,7.197-7.197,7.197h-8.868V211.403z M249.847,271.73h-13.043v-26.087h8.868h4.175c7.192,0,13.042,5.852,13.042,13.043
			C262.889,265.879,257.037,271.73,249.847,271.73z"/>
	</g>
</g>
<g>
	<g>
		<path d="M195.256,347.295c2.286-3.966,3.614-8.551,3.614-13.447c0-14.911-12.132-27.042-27.042-27.042h-18.791
			c-5.481,0-9.922,4.443-9.922,9.922v80.171c0,5.48,4.441,9.922,9.922,9.922h22.966c18.134,0,32.887-14.754,32.887-32.888
			C208.891,362.986,203.509,353.276,195.256,347.295z M162.96,326.649h8.868c3.969,0,7.197,3.228,7.197,7.197
			s-3.228,7.197-7.197,7.197h-8.868V326.649z M176.004,386.977H162.96V360.89h8.868h4.175c7.192,0,13.042,5.852,13.042,13.043
			S183.195,386.977,176.004,386.977z"/>
	</g>
</g>
<g>
	<g>
		<path d="M346.698,232.048c2.286-3.966,3.613-8.551,3.613-13.447c0.001-14.913-12.129-27.043-27.039-27.043h-18.791
			c-5.481,0-9.922,4.443-9.922,9.922v80.172c0,5.48,4.441,9.922,9.922,9.922h22.965c18.134,0,32.888-14.754,32.888-32.888
			C360.334,247.739,354.951,238.03,346.698,232.048z M314.404,211.403h8.868c3.968,0,7.196,3.228,7.196,7.197
			s-3.228,7.197-7.196,7.197h-8.868V211.403z M327.446,271.73h-13.042v-26.087h8.868h4.174c7.193,0,13.043,5.852,13.043,13.043
			C340.489,265.879,334.638,271.73,327.446,271.73z"/>
	</g>
</g>
<g>
	<g>
		<path d="M423.695,192.872c-4.756-2.723-10.818-1.078-13.542,3.678l-14.356,25.058L381.44,196.55
			c-2.725-4.755-8.789-6.399-13.542-3.677c-4.755,2.725-6.401,8.787-3.677,13.542l21.654,37.795v37.443
			c0,5.479,4.441,9.921,9.922,9.921s9.922-4.443,9.922-9.922v-37.445l21.652-37.794
			C430.096,201.659,428.449,195.596,423.695,192.872z"/>
	</g>
</g>
<g>
	<g>
		<path d="M359.806,308.118c-4.755-2.723-10.817-1.077-13.542,3.677l-14.357,25.058l-14.356-25.058
			c-2.725-4.756-8.79-6.401-13.542-3.678c-4.755,2.724-6.401,8.787-3.677,13.542l21.652,37.794v37.446
			c0,5.48,4.441,9.922,9.922,9.922s9.922-4.443,9.922-9.922v-37.443l21.654-37.795C366.207,316.905,364.56,310.842,359.806,308.118z
			"/>
	</g>
</g>
<g>
	<g>
		<path d="M511.963,409.263l-9.719-110.859c-0.478-5.46-5.295-9.49-10.752-9.018c-5.459,0.478-9.497,5.292-9.018,10.751
			l9.556,109.004c-2.35,2.238-15.177,11.506-71.836,19.546c-44.929,6.375-103.24,9.887-164.193,9.887s-119.266-3.511-164.193-9.887
			c-56.66-8.041-69.485-17.309-71.836-19.546l25.031-285.557c8.504,4.214,20.152,7.947,35.225,11.371
			c5.344,1.218,10.661-2.134,11.874-7.478c1.214-5.344-2.134-10.661-7.478-11.874c-26.026-5.911-34.476-11.476-36.991-13.733
			c3.206-2.881,16.031-11.148,62.279-18.543c39.928-6.385,91.809-9.901,146.088-9.901s106.16,3.517,146.088,9.901
			c46.248,7.396,59.072,15.662,62.277,18.543c-3.206,2.882-16.029,11.148-62.277,18.543c-39.928,6.385-91.809,9.901-146.088,9.901
			c-48.398,0-94.143-2.723-132.292-7.873c-5.427-0.732-10.429,3.073-11.162,8.506c-0.733,5.431,3.075,10.428,8.506,11.161
			c39.014,5.267,85.679,8.05,134.948,8.05c59.067,0,114.685-4.044,156.607-11.386c24.641-4.316,42.546-9.268,54.39-15.18
			l12.088,137.892c0.454,5.165,4.785,9.057,9.874,9.057c0.291,0,0.583-0.013,0.878-0.038c5.459-0.478,9.496-5.292,9.018-10.751
			l-13.914-158.728c-0.747-16.293-23.134-27.44-72.334-36.057C370.685,57.626,315.067,53.581,256,53.581
			S141.315,57.626,99.393,64.967c-49.2,8.617-71.587,19.766-72.334,36.057L0.037,409.263C0.013,409.551,0,409.839,0,410.129
			c0,11.354,9.146,25.813,80.467,36.934c46.968,7.323,109.306,11.355,175.533,11.355c66.225,0,128.564-4.033,175.531-11.355
			C502.854,435.942,512,421.483,512,410.129C512,409.839,511.987,409.551,511.963,409.263z"/>
	</g>
</g>
<g>
</g>
<g>
</g>
<g>
</g>
<g>
</g>
<g>
</g>
<g>
</g>
<g>
</g>
<g>
</g>
<g>
</g>
<g>
</g>
<g>
</g>
<g>
</g>
<g>
</g>
<g>
</g>
<g>
</g>
</svg>
