<?xml version="1.0" encoding="iso-8859-1"?>
<!-- Generator: Adobe Illustrator 19.0.0, SVG Export Plug-In . SVG Version: 6.00 Build 0)  -->
<svg fill="#000000" version="1.1" id="Layer_1" xmlns="http://www.w3.org/2000/svg" xmlns:xlink="http://www.w3.org/1999/xlink" x="0px" y="0px"
	 viewBox="0 0 297.731 297.731" style="enable-background:new 0 0 297.731 297.731;" xml:space="preserve">
<g id="XMLID_1337_">
	<g>
		<g>
			<path d="M35.568,169.381c2.459-6.132,7.881-18.421,12.531-28.02h-6.536v-3.856c0-2.081-1.687-3.769-3.769-3.769h-7.193
				c-2.081,0-3.769,1.687-3.769,3.769v3.856H8.605c-2.081,0-3.769,1.687-3.769,3.769v11.743c0,2.081,1.687,3.769,3.769,3.769h18.227
				v9.364H8.605c-2.081,0-3.769,1.687-3.769,3.769v11.743c0,2.081,1.687,3.769,3.769,3.769h18.227v13.907H7.101
				c-1.268,0-2.376,0.857-2.696,2.084L0.09,221.869c-0.217,0.835-0.035,1.722,0.492,2.404c0.527,0.682,1.341,1.082,2.203,1.082
				h5.396v30.161c0,2.081,1.687,3.769,3.769,3.769h7.029c2.081,0,3.769-1.687,3.769-3.769v-30.161h4.085v6.885
				c0,2.081,1.687,3.769,3.769,3.769h8.902c-1.318-8.525-1.2-7.761-2.044-13.213c-0.868-5.609,0.737-11.151,4.068-15.404
				l0.034-16.587C34.976,185.901,32.456,177.159,35.568,169.381z"/>
			<path d="M192.977,205.39c-0.278-1.281-1.411-2.195-2.722-2.195h-20.6v-13.907h18.227c2.081,0,3.769-1.687,3.769-3.769v-11.743
				c0-2.081-1.687-3.769-3.769-3.769h-18.227v-9.364h18.227c2.081,0,3.769-1.687,3.769-3.769v-11.743
				c0-2.081-1.687-3.769-3.769-3.769h-18.227v-3.856c0-2.081-1.687-3.769-3.769-3.769h-7.193c-2.081,0-3.769,1.687-3.769,3.769
				v3.856h-8.269c4.644,9.588,10.065,21.871,12.533,28.027c2.804,7.008,1.035,14.821-4.209,19.899
				c-0.019,0.018-0.036,0.036-0.055,0.055l0.01,14.973c5.31,4.402,8.159,11.391,7.062,18.485c-0.859,5.555-0.718,4.639-2.044,13.213
				h5.933c2.081,0,3.769-1.687,3.769-3.769v-6.885h4.085v30.161c0,2.081,1.687,3.769,3.769,3.769h7.029
				c2.081,0,3.769-1.687,3.769-3.769V225.36h5.544c0.842,0,1.639-0.381,2.168-1.037c0.53-0.658,0.734-1.517,0.555-2.341
				L192.977,205.39z"/>
			<path d="M145.853,209.985l-22.992-8.575c-3.991,1.758-2.89,1.273-4.852,2.137c-8.143,3.587-17.708-0.503-20.631-9.068
				c-2.922,8.562-12.486,12.656-20.631,9.068c-2.745-1.21-2.231-0.983-2.696-1.188l-20.445,7.626
				c-4.518,1.685-7.418,6.383-6.651,11.346l7.682,49.676c0.879,5.685,6.202,9.577,11.88,8.698c5.65-0.874,9.576-6.203,8.698-11.881
				l-6.386-41.294c25.123-9.37,24.503-9.074,25.555-9.649h10.689c1.058,0.578-0.454-0.053,25.556,9.649l-6.386,41.294
				c-0.879,5.682,3.015,11.002,8.698,11.88c5.675,0.878,11.004-3.03,11.88-8.698l7.682-49.676
				C153.258,216.451,150.48,211.711,145.853,209.985z"/>
			<path d="M79.41,197.497c4.384,1.932,9.506-0.057,11.437-4.442c1.919-4.358-0.036-9.496-4.442-11.437
				c-8.635-3.804-2.493-1.098-22.548-9.932c0.764-1.754,8.523-18.968,9.139-19.705c0.131-0.155,0.249-0.265,0.374-0.362
				c0.183-0.142,0.431-0.167,0.639-0.065s0.339,0.313,0.339,0.545v16.986l5.571,2.454v-12.975c0-0.788,0.375-1.53,1.01-1.997
				c0.635-0.467,1.455-0.604,2.207-0.37l14.061,4.383l14.061-4.383c0.753-0.235,1.572-0.097,2.207,0.37
				c0.635,0.467,1.01,1.209,1.01,1.997v13.133l5.826-2.566v-17.035c0-0.241,0.135-0.462,0.35-0.572s0.473-0.09,0.669,0.053
				c0.015,0.011,0.031,0.021,0.045,0.032c0.65,0.496,8.763,18.322,9.528,20.078l-22.547,9.932
				c-4.385,1.932-6.374,7.052-4.442,11.437c1.935,4.392,7.06,6.372,11.437,4.442l30.368-13.377
				c4.279-1.884,6.295-6.822,4.557-11.163c-2.251-5.637-7.782-18.201-12.581-28.072c-3.236-6.654-10.197-11.149-17.824-11.149
				c-5.023,0-40.321,0-44.975,0c-6.645,0-12.994,3.449-16.643,9.079c-1.983,3.058-10.801,22.728-13.762,30.142
				c-1.737,4.341,0.278,9.278,4.557,11.163L79.41,197.497z"/>
			<path d="M97.421,128.005c9.927,0,17.982-8.047,17.982-17.982c0-9.931-8.047-17.982-17.982-17.982
				c-9.916,0-17.982,8.034-17.982,17.982C79.44,119.957,87.492,128.005,97.421,128.005z"/>
			<path d="M248.331,17.901c-23.031,0-49.4,47.377-49.4,90.322c0,35.861,15.428,57.278,36.402,63.372v83.924
				c0,2.081,1.687,3.769,3.769,3.769h18.458c2.081,0,3.769-1.687,3.769-3.769v-83.924c20.975-6.094,36.402-27.511,36.402-63.372
				C297.731,65.279,271.362,17.901,248.331,17.901z"/>
		</g>
	</g>
</g>
<g>
</g>
<g>
</g>
<g>
</g>
<g>
</g>
<g>
</g>
<g>
</g>
<g>
</g>
<g>
</g>
<g>
</g>
<g>
</g>
<g>
</g>
<g>
</g>
<g>
</g>
<g>
</g>
<g>
</g>
</svg>
