<?xml version="1.0" encoding="utf-8"?>
<!-- Generator: Adobe Illustrator 19.1.0, SVG Export Plug-In . SVG Version: 6.00 Build 0)  -->
<svg fill="#000000" version="1.1" id="Layer_1" xmlns="http://www.w3.org/2000/svg" xmlns:xlink="http://www.w3.org/1999/xlink" x="0px" y="0px"
	 viewBox="0 0 64 64" enable-background="new 0 0 64 64" xml:space="preserve">
<g id="School">
	<path d="M17.1816006,33.0696068h-4.5088005c-0.5522003,0-1,0.4477005-1,1v6.7637024c0,0.5522003,0.4477997,1,1,1h4.5088005
		c0.5522995,0,1-0.4477997,1-1v-6.7637024C18.1816006,33.5173073,17.7339001,33.0696068,17.1816006,33.0696068z
		 M16.1816006,39.8333092h-2.5088005v-4.7637024h2.5088005V39.8333092z"/>
	<path d="M28.4545994,33.0696068h-4.5093002c-0.5521984,0-1,0.4477005-1,1v6.7637024c0,0.5522003,0.4478016,1,1,1h4.5093002
		c0.5522003,0,1-0.4477997,1-1v-6.7637024C29.4545994,33.5173073,29.0067997,33.0696068,28.4545994,33.0696068z
		 M27.4545994,39.8333092h-2.5093002v-4.7637024h2.5093002V39.8333092z"/>
	<path d="M39.7270012,33.0696068h-4.5087013c-0.5522995,0-1,0.4477005-1,1v6.7637024c0,0.5522003,0.4477005,1,1,1h4.5087013
		c0.5522957,0,1-0.4477997,1-1v-6.7637024C40.7270012,33.5173073,40.2792969,33.0696068,39.7270012,33.0696068z
		 M38.7270012,39.8333092h-2.5087051v-4.7637024h2.5087051V39.8333092z"/>
	<path d="M51,33.0696068h-4.509304c-0.5522003,0-1,0.4477005-1,1v6.7637024c0,0.5522003,0.4477997,1,1,1H51
		c0.5521965,0,1-0.4477997,1-1v-6.7637024C52,33.5173073,51.5521965,33.0696068,51,33.0696068z M50,39.8333092h-2.509304v-4.7637024
		H50V39.8333092z"/>
	<path d="M63,60.4514084h-5v-33c0-0.5522003-0.4478035-1-1-1h-6.7612038v-6.9927006
		c0-0.0294991-0.0142975-0.0541992-0.0168991-0.0830002c-0.0063019-0.0765991-0.0209999-0.1483994-0.0443993-0.2201996
		c-0.0156021-0.0482998-0.0307007-0.0942001-0.0531998-0.1390991c-0.0328026-0.0655003-0.0748024-0.1224003-0.1208992-0.1794014
		c-0.0313988-0.0384998-0.0588036-0.0774994-0.0956001-0.110899c-0.0537033-0.0493011-0.1167984-0.0853004-0.1812019-0.1223011
		c-0.0439987-0.0252991-0.0833015-0.0545998-0.1311989-0.073c-0.012001-0.0046997-0.0207024-0.0142002-0.0329018-0.0182991
		L32.2025986,12.569108v-2.0426998c1.6197014,0.2888002,3.2165031,0.4401999,4.7817993,0.4401999
		c1.9623985,0,3.8773994-0.2276001,5.7290001-0.6821995c0.4472008-0.1098003,0.7616997-0.5107002,0.7616997-0.9712V2.5496082
		c0-0.2906001-0.1264992-0.5664001-0.346199-0.7564c-0.2192001-0.1899-0.5116997-0.2783-0.7983017-0.2329
		c-3.9921989,0.5829999-7.6777954,0.5855-10.9536972,0.0044c-0.0277996-0.0051-0.0545006,0.0060999-0.0823994,0.0034
		c-0.0318012-0.003-0.0592995-0.0185-0.0918999-0.0185c-0.0495014,0-0.092001,0.0211999-0.1396008,0.0281999
		c-0.0613995,0.0089-0.1194,0.0157001-0.1779995,0.036c-0.0816994,0.0277001-0.1520996,0.0696-0.2227001,0.1162001
		c-0.0324993,0.0215-0.0720005,0.0280999-0.1023006,0.0534999c-0.0105991,0.0089-0.0144997,0.0229-0.0245991,0.0322
		c-0.0729008,0.0661-0.1270008,0.1465-0.1777,0.2312c-0.0200996,0.0338001-0.0489998,0.0605001-0.0650005,0.0964
		c-0.0559006,0.1248-0.0900993,0.2608001-0.0900993,0.4063001v6.7636003v3.2558994l-17.3603001,5.9434004
		c-0.0122004,0.0040989-0.0209007,0.0135994-0.033,0.0182991c-0.0478001,0.0184002-0.0871,0.0477009-0.1311007,0.073
		c-0.0643997,0.0370007-0.1275997,0.073-0.1813002,0.1223011c-0.0366993,0.0333996-0.0641994,0.0723991-0.0955,0.110899
		c-0.0461998,0.0570011-0.0881996,0.1139011-0.1208992,0.1794014c-0.0226002,0.044899-0.0376005,0.0907993-0.0532007,0.1390991
		c-0.0234995,0.0718002-0.0380993,0.1436005-0.0443993,0.2201996c-0.0026007,0.028801-0.0169001,0.0535011-0.0169001,0.0830002
		v6.9927006H7c-0.5523,0-1,0.4477997-1,1v33H1c-0.5523,0-1,0.4473-1,1c0,0.5527992,0.4477,1,1,1h6h17h16h17h6
		c0.5521965,0,1-0.4472008,1-1C64,60.8987083,63.5521965,60.4514084,63,60.4514084z M14.1660004,24.4514084h34.0727959v1.8985004
		H14.1660004V24.4514084z M48.2387962,22.4514084H14.1660004v-1.9927006h34.0727959V22.4514084z M41.4750977,3.6921082v4.8223
		c-2.9384995,0.6073999-6.0502968,0.6029997-9.2724991-0.0156002V3.7170081
		C35.0565987,4.1018081,38.1664963,4.0935082,41.4750977,3.6921082z M31.2026005,14.3411083l12.027895,4.1175995H19.1742992
		L31.2026005,14.3411083z M25,60.4514084v-12h6v12H25z M33,60.4514084v-12h6v12H33z M41,60.4514084v-13c0-0.5522003-0.4478035-1-1-1
		H24c-0.5522995,0-1,0.4477997-1,1v13H8v-32h48v32H41z"/>
</g>
<g>
</g>
<g>
</g>
<g>
</g>
<g>
</g>
<g>
</g>
<g>
</g>
<g>
</g>
<g>
</g>
<g>
</g>
<g>
</g>
<g>
</g>
<g>
</g>
<g>
</g>
<g>
</g>
<g>
</g>
</svg>
