<?xml version="1.0" encoding="iso-8859-1"?>
<!-- Generator: Adobe Illustrator 18.1.1, SVG Export Plug-In . SVG Version: 6.00 Build 0)  -->
<svg fill="#000000" version="1.1" id="Capa_1" xmlns="http://www.w3.org/2000/svg" xmlns:xlink="http://www.w3.org/1999/xlink" x="0px" y="0px"
	 viewBox="0 0 45.816 45.816" style="enable-background:new 0 0 45.816 45.816;" xml:space="preserve">
<g>
	<path d="M26.276,22.047l0.124-0.536c0.006-0.045,0.02-0.087,0.021-0.13h-0.079v-1.634h0.638c0.728-1.259,2.027-1.967,3.773-2.011
		c-0.146-0.174-0.316-0.331-0.519-0.466l3.148-0.168c0,0,0.128-0.401,0-1.521c-0.126-1.114-3.134,0-3.134,0l-0.181,1.591
		c-0.062-0.037-0.131-0.073-0.198-0.104l-0.764-3.313c-0.274-1.576-1.468-2.737-3.205-2.68h-7.26c-1.568,0-2.938,0.596-3.206,2.68
		l-0.758,3.313c-0.07,0.03-0.136,0.066-0.202,0.104l-0.178-1.591c0,0-2.533-1.114-3.134,0c-0.604,1.116,0,1.521,0,1.521l3.147,0.168
		c-0.193,0.132-0.365,0.286-0.509,0.459h1.074c0.051-0.002,0.1-0.003,0.146-0.003c2.22,0,3.979,1.507,4.392,3.751l0.136,0.595
		c0.552-0.157,1.304-0.33,1.956-0.33c0.642,0,1.122,0.165,1.468,0.416c0.357-0.235,0.854-0.416,1.539-0.416
		C25.14,21.746,25.784,21.897,26.276,22.047z M25.472,20.516h-5.886v-0.715h5.886V20.516z M15.491,16.613
		c-0.053,0-0.103,0.004-0.15,0.006l0.814-3.271c0.152-0.929,1.184-1.729,2.195-1.729h7.863c1.013,0,1.938,0.651,2.191,1.729
		l0.817,3.271c-0.052-0.002-0.104-0.006-0.154-0.006H15.491z M19.526,21.438v-0.716h5.89v0.716H19.526z M19.353,23.269l-0.177,1.59
		c-0.065-0.037-0.133-0.073-0.203-0.104l-0.76-3.312c-0.279-1.579-1.468-2.739-3.204-2.682H7.748c-1.571,0-2.938,0.596-3.204,2.682
		l-0.763,3.311c-0.066,0.032-0.136,0.068-0.198,0.104l-0.182-1.589c0,0-2.529-1.116-3.134,0c-0.6,1.117,0,1.519,0,1.519l3.15,0.169
		c-0.588,0.396-0.966,0.99-0.966,1.662v3.037c0,0.754,0.479,1.417,1.194,1.799v2.04c0,0.689,0.854,1.249,1.905,1.249
		s1.905-0.559,1.905-1.249v-1.696h7.509v1.695c0,0.689,0.853,1.249,1.904,1.249c1.053,0,1.901-0.559,1.901-1.249v-1.892
		c0.903-0.34,1.528-1.083,1.528-1.946v-3.037c0-0.671-0.378-1.269-0.966-1.661l3.147-0.169c0,0,0.127-0.398,0-1.519
		C22.359,22.153,19.353,23.269,19.353,23.269z M7.791,29.065H4.352v-1.633H7.79v1.633H7.791z M14.512,29.119H8.624v-0.715h5.888
		V29.119z M14.57,28.196H8.683V27.48h5.887V28.196z M4.59,24.294c-0.053,0-0.104,0.004-0.155,0.006l0.817-3.271
		c0.149-0.93,1.181-1.729,2.191-1.729h7.864c1.013,0,1.94,0.652,2.195,1.729l0.812,3.271c-0.052-0.003-0.102-0.006-0.151-0.006H4.59
		z M18.88,29.065h-3.439v-1.633h3.438v1.633H18.88z M45.761,23.269c-0.126-1.116-3.134,0-3.134,0l-0.181,1.59
		c-0.062-0.037-0.132-0.073-0.199-0.104l-0.764-3.312c-0.275-1.579-1.468-2.739-3.205-2.682h-7.26c-1.566,0-2.938,0.596-3.204,2.682
		l-0.758,3.311c-0.07,0.032-0.138,0.068-0.203,0.104l-0.178-1.59c0,0-2.531-1.116-3.133,0c-0.603,1.117,0,1.519,0,1.519l3.147,0.169
		c-0.59,0.396-0.966,0.989-0.966,1.661v3.037c0,0.754,0.479,1.417,1.197,1.799v2.04c0,0.689,0.852,1.249,1.905,1.249
		s1.901-0.559,1.901-1.249v-1.695h7.512v1.695c0,0.689,0.854,1.249,1.902,1.249c1.052,0,1.904-0.559,1.904-1.249v-1.892
		c0.897-0.34,1.522-1.083,1.522-1.946v-3.037c0-0.671-0.38-1.271-0.968-1.661l3.151-0.169
		C45.761,24.789,45.887,24.386,45.761,23.269z M31.066,29.065h-3.438v-1.633h3.438V29.065z M37.785,29.119h-5.891v-0.715h5.891
		V29.119z M31.959,28.196V27.48h5.887l0.001,0.716H31.959z M27.865,24.294c-0.053,0-0.104,0.004-0.151,0.006l0.813-3.271
		c0.152-0.93,1.187-1.729,2.195-1.729h7.863c1.013,0,1.938,0.652,2.192,1.729l0.817,3.271c-0.052-0.003-0.103-0.006-0.155-0.006
		H27.865z M42.154,29.065h-3.438v-1.633h3.438V29.065z"/>
</g>
<g>
</g>
<g>
</g>
<g>
</g>
<g>
</g>
<g>
</g>
<g>
</g>
<g>
</g>
<g>
</g>
<g>
</g>
<g>
</g>
<g>
</g>
<g>
</g>
<g>
</g>
<g>
</g>
<g>
</g>
</svg>
