<?xml version='1.0' encoding='iso-8859-1'?>
<svg fill="#000000" version="1.1" xmlns="http://www.w3.org/2000/svg" viewBox="0 0 463.004 463.004" xmlns:xlink="http://www.w3.org/1999/xlink" enable-background="new 0 0 463.004 463.004">
  <g>
    <path d="m455.502,292.003h-56.588l22.938-36.51c0.485-0.771 0.825-1.625 1.004-2.519l8-40c0.813-4.062-1.822-8.013-5.884-8.825-4.06-0.809-8.014,1.822-8.825,5.884l-7.729,38.648-27.218,43.322h-86.816l15.101-19.978c0.855-1.132 1.373-2.485 1.49-3.899l7.881-94.561 21.646-43.292 31.945-5.324-20.061,60.183c-0.176,0.527-0.292,1.072-0.348,1.625l-3.2,32.001c-0.412,4.122 2.595,7.797 6.717,8.209 4.121,0.41 7.797-2.595 8.209-6.717l3.117-31.169 22.393-67.178 67.854-15.079c4.044-0.898 6.593-4.905 5.694-8.948-0.897-4.043-4.905-6.594-8.948-5.694l-71.801,15.956-47.806,7.968c-2.366,0.395-4.401,1.897-5.475,4.044l-9.927,19.854h-174.73l-9.927-19.854c-1.138-2.275-3.352-3.819-5.88-4.1l-71.209-7.912-47.245-15.75c-3.931-1.311-8.177,0.814-9.487,4.744-1.31,3.93 0.813,8.177 4.743,9.487l44.443,14.814 22.549,67.649 3.117,31.169c0.413,4.121 4.098,7.136 8.209,6.717 4.122-0.412 7.129-4.087 6.717-8.209l-3.2-32.001c-0.056-0.553-0.172-1.098-0.348-1.625l-20.293-60.88 56.294,6.255 21.529,43.059 7.881,94.561c0.117,1.415 0.635,2.767 1.49,3.899l15.101,19.978h-35.21l-6.635-26.333c-1.011-4.017-5.087-6.454-9.105-5.44-4.016,1.012-6.452,5.088-5.439,9.105l5.712,22.667h-110.44c-4.143,0-7.5,3.358-7.5,7.5s3.357,7.5 7.5,7.5h448c4.143,0 7.5-3.358 7.5-7.5s-3.357-7.501-7.5-7.501zm-288.706-27.288l-7.82-93.834c-0.079-0.951-0.339-1.877-0.766-2.731l-6.573-13.146h40.365v24.5c0,4.142 3.357,7.5 7.5,7.5s7.5-3.358 7.5-7.5v-24.5h17v64.5c0,4.142 3.357,7.5 7.5,7.5s7.5-3.358 7.5-7.5v-64.5h17v40.5c0,4.142 3.357,7.5 7.5,7.5s7.5-3.358 7.5-7.5v-40.5h40.365l-6.573,13.146c-0.427,0.854-0.687,1.78-0.766,2.731l-7.82,93.834-20.628,27.289h-4.578v-64.5c0-4.142-3.357-7.5-7.5-7.5s-7.5,3.358-7.5,7.5v64.5h-49v-8.5c0-4.142-3.357-7.5-7.5-7.5s-7.5,3.358-7.5,7.5v8.5h-4.578l-20.628-27.289z"/>
    <path d="m311.502,324.003h-144c-4.143,0-7.5,3.358-7.5,7.5s3.357,7.5 7.5,7.5h144c4.143,0 7.5-3.358 7.5-7.5s-3.357-7.5-7.5-7.5z"/>
    <path d="m135.502,324.003h-64c-4.143,0-7.5,3.358-7.5,7.5s3.357,7.5 7.5,7.5h64c4.143,0 7.5-3.358 7.5-7.5s-3.357-7.5-7.5-7.5z"/>
    <path d="m359.502,324.003h-16c-4.143,0-7.5,3.358-7.5,7.5s3.357,7.5 7.5,7.5h16c4.143,0 7.5-3.358 7.5-7.5s-3.357-7.5-7.5-7.5z"/>
    <path d="m295.502,356.003h-79.998c-4.143,0-7.5,3.358-7.5,7.5s3.357,7.5 7.5,7.5h79.998c4.143,0 7.5-3.358 7.5-7.5s-3.357-7.5-7.5-7.5z"/>
    <path d="m183.503,356.003h-16.001c-4.143,0-7.5,3.358-7.5,7.5s3.357,7.5 7.5,7.5h16.001c4.143,0 7.5-3.358 7.5-7.5s-3.357-7.5-7.5-7.5z"/>
    <path d="m87.493,275.004c0.249,0 0.501-0.012 0.755-0.038 4.122-0.412 7.129-4.087 6.717-8.209l-1.6-15.997c-0.412-4.121-4.072-7.126-8.209-6.717-4.122,0.412-7.129,4.087-6.717,8.209l1.6,15.997c0.387,3.868 3.648,6.755 7.454,6.755z"/>
    <path d="m345.639,250.76l-1.6,15.997c-0.412,4.122 2.595,7.797 6.717,8.209 0.254,0.025 0.505,0.038 0.755,0.038 3.807,0 7.067-2.887 7.454-6.754l1.6-15.997c0.412-4.122-2.595-7.797-6.717-8.209-4.123-0.416-7.797,2.594-8.209,6.716z"/>
    <path d="m231.502,275.003c4.143,0 7.5-3.358 7.5-7.5v-16c0-4.142-3.357-7.5-7.5-7.5s-7.5,3.358-7.5,7.5v16c0,4.142 3.357,7.5 7.5,7.5z"/>
    <path d="m199.502,259.003c4.143,0 7.5-3.358 7.5-7.5v-40c0-4.142-3.357-7.5-7.5-7.5s-7.5,3.358-7.5,7.5v40c0,4.142 3.357,7.5 7.5,7.5z"/>
  </g>
</svg>
